<svg width="165" height="121" viewBox="0 0 165 121" fill="none" xmlns="http://www.w3.org/2000/svg">
<g clip-path="url(#clip0)">
<path opacity="0.5" d="M81.7261 119.566C104.283 119.566 122.569 116.495 122.569 112.706C122.569 108.917 104.283 105.845 81.7261 105.845C59.1693 105.845 40.8834 108.917 40.8834 112.706C40.8834 116.495 59.1693 119.566 81.7261 119.566Z" fill="#DEE3F3"/>
<g opacity="0.45">
<path opacity="0.45" d="M71.9163 41.3162C71.9167 41.3929 71.9221 41.4694 71.9325 41.5454C71.9221 41.4694 71.9167 41.3929 71.9163 41.3162Z" fill="#6C63FF"/>
<path opacity="0.45" d="M92.4837 36.3884C92.4868 36.4091 92.4907 36.4295 92.4931 36.4504C92.4907 36.4295 92.4868 36.4091 92.4837 36.3884Z" fill="#6C63FF"/>
<path opacity="0.45" d="M92.4409 36.1851C92.4468 36.2067 92.4525 36.2283 92.4576 36.2501C92.4525 36.2283 92.4468 36.2067 92.4409 36.1851Z" fill="#6C63FF"/>
<path opacity="0.45" d="M92.4626 41.7017C92.4546 41.7373 92.4455 41.7724 92.4355 41.8072C92.4455 41.7724 92.4546 41.7373 92.4626 41.7017Z" fill="#6C63FF"/>
<path opacity="0.45" d="M92.4913 41.5334C92.4866 41.5712 92.4811 41.6088 92.4741 41.6459C92.4811 41.6088 92.4866 41.5713 92.4913 41.5334Z" fill="#6C63FF"/>
<path opacity="0.45" d="M72.8673 42.8823C72.7304 42.8105 72.6033 42.7212 72.4895 42.6165C72.6033 42.7212 72.7303 42.8106 72.8673 42.8823Z" fill="#6C63FF"/>
<path opacity="0.45" d="M72.4757 42.604C72.4222 42.5538 72.3719 42.5005 72.325 42.4442C72.3718 42.5005 72.4222 42.5539 72.4757 42.604Z" fill="#6C63FF"/>
<path opacity="0.45" d="M102.827 76.3303C102.806 76.2604 102.781 76.1918 102.752 76.1251C102.781 76.1919 102.806 76.2604 102.827 76.3303Z" fill="#6C63FF"/>
<path opacity="0.45" d="M101.948 75.2665C102.018 75.3029 102.085 75.3439 102.149 75.3893C102.085 75.3439 102.018 75.3029 101.948 75.2665Z" fill="#6C63FF"/>
<path opacity="0.45" d="M102.344 75.5482C102.451 75.6498 102.546 75.7644 102.625 75.8895C102.546 75.7644 102.451 75.6498 102.344 75.5482Z" fill="#6C63FF"/>
<path opacity="0.45" d="M102.156 75.3939C102.214 75.4358 102.27 75.4812 102.323 75.5298C102.27 75.4812 102.214 75.4358 102.156 75.3939Z" fill="#6C63FF"/>
<path opacity="0.45" d="M102.736 76.0935C102.71 76.0364 102.68 75.9807 102.648 75.9267C102.68 75.9807 102.71 76.0364 102.736 76.0935Z" fill="#6C63FF"/>
<path opacity="0.45" d="M102.875 76.5481C102.866 76.4893 102.853 76.4311 102.838 76.3735C102.853 76.4311 102.866 76.4893 102.875 76.5481Z" fill="#6C63FF"/>
<path opacity="0.45" d="M156.106 66.8708H145.95C146.185 66.7084 146.377 66.4916 146.509 66.239C146.641 65.9863 146.71 65.7053 146.71 65.4201V60.7579C146.71 60.5259 146.665 60.2961 146.576 60.0818C146.487 59.8674 146.357 59.6726 146.193 59.5086C146.029 59.3445 145.834 59.2144 145.62 59.1256C145.405 59.0368 145.175 58.9911 144.943 58.9911H133.255C133.612 58.8772 133.923 58.6527 134.144 58.3502C134.365 58.0476 134.484 57.6827 134.484 57.308V52.6458C134.485 52.3606 134.415 52.0796 134.283 51.8269C134.151 51.5742 133.959 51.3574 133.725 51.1951H144.943C145.175 51.1951 145.405 51.1494 145.62 51.0606C145.834 50.9718 146.029 50.8416 146.193 50.6776C146.357 50.5135 146.487 50.3187 146.576 50.1044C146.665 49.89 146.71 49.6603 146.71 49.4282V44.7661C146.71 44.534 146.665 44.3043 146.576 44.0899C146.487 43.8756 146.357 43.6808 146.193 43.5167C146.029 43.3527 145.834 43.2225 145.62 43.1337C145.405 43.0449 145.175 42.9992 144.943 42.9992H132.455C132.812 42.8853 133.123 42.6609 133.345 42.3583C133.566 42.0558 133.685 41.6908 133.685 41.3161V36.6539C133.685 36.3687 133.616 36.0877 133.483 35.8351C133.351 35.5824 133.16 35.3656 132.925 35.2032H144.943C145.175 35.2032 145.405 35.1575 145.62 35.0687C145.834 34.9799 146.029 34.8498 146.193 34.6857C146.357 34.5216 146.487 34.3269 146.576 34.1125C146.665 33.8982 146.71 33.6684 146.71 33.4364V28.7742C146.71 28.5422 146.665 28.3124 146.576 28.0981C146.487 27.8837 146.357 27.6889 146.193 27.5249C146.029 27.3608 145.834 27.2307 145.62 27.1419C145.405 27.0531 145.175 27.0074 144.943 27.0074H138.652C139.009 26.8935 139.32 26.669 139.541 26.3665C139.762 26.0639 139.882 25.699 139.882 25.3243V20.6621C139.882 20.4301 139.836 20.2003 139.747 19.986C139.658 19.7716 139.528 19.5768 139.364 19.4127C139.2 19.2487 139.005 19.1185 138.791 19.0298C138.577 18.941 138.347 18.8953 138.115 18.8953H121.059C120.827 18.8953 120.597 18.941 120.383 19.0297C120.168 19.1185 119.974 19.2487 119.81 19.4127C119.646 19.5768 119.515 19.7716 119.427 19.9859C119.338 20.2003 119.292 20.4301 119.292 20.6621C119.292 20.4301 119.246 20.2003 119.158 19.986C119.069 19.7716 118.939 19.5768 118.775 19.4127C118.611 19.2487 118.416 19.1185 118.201 19.0297C117.987 18.941 117.757 18.8953 117.525 18.8953H100.469C100.133 18.8954 99.8033 18.9918 99.5196 19.1731C99.236 19.3543 99.01 19.6129 98.8685 19.9183C98.891 20.0316 98.9024 20.1468 98.9025 20.2623V24.9245C98.9023 25.1811 98.8459 25.4345 98.7373 25.667C98.8168 26.0696 99.0342 26.4318 99.352 26.6913H103.732C104.14 26.6907 104.536 26.8321 104.851 27.0911H106.761C106.404 27.205 106.093 27.4295 105.872 27.732C105.65 28.0345 105.531 28.3995 105.531 28.7742C105.531 28.6618 105.52 28.5497 105.498 28.4394C105.498 28.4457 105.499 28.4518 105.499 28.4581V33.1203C105.499 33.269 105.479 33.417 105.442 33.5609C105.47 33.5908 105.495 33.6235 105.517 33.6584C105.527 33.5847 105.531 33.5106 105.531 33.4364C105.532 33.5388 105.542 33.641 105.561 33.7417C105.584 33.7979 105.598 33.8578 105.6 33.9186C105.712 34.3115 105.956 34.6536 106.291 34.8871H104.771C104.785 34.8776 104.797 34.8662 104.81 34.8564C104.669 34.8599 104.527 34.8445 104.386 34.8429C104.336 34.8423 104.286 34.8319 104.239 34.8125C104.075 34.8619 103.904 34.887 103.732 34.8871L93.2656 35.2032C93.0311 35.3656 92.8394 35.5824 92.7071 35.8351C92.5748 36.0877 92.5057 36.3687 92.5058 36.6539V41.3161C92.5059 41.6908 92.625 42.0558 92.8461 42.3583C93.0671 42.6608 93.3786 42.8853 93.7356 42.9992L103.732 43.0829C103.908 43.0829 104.083 43.109 104.251 43.1606C104.362 43.1703 104.473 43.1897 104.581 43.2186C104.59 43.2168 104.598 43.2161 104.606 43.2144C104.509 43.161 104.407 43.117 104.301 43.0829H106.761C106.404 43.1969 106.093 43.4213 105.872 43.7239C105.65 44.0264 105.531 44.3913 105.531 44.766C105.531 44.6636 105.522 44.5614 105.504 44.4605C105.493 44.4773 105.48 44.4932 105.465 44.5079C105.488 44.6205 105.499 44.735 105.499 44.8497V49.5119C105.499 49.7282 105.531 49.6762 105.531 49.4282C105.531 49.7135 105.6 49.9944 105.733 50.2471C105.865 50.4998 106.057 50.7166 106.291 50.879L112.528 51.0789C112.742 51.0792 112.954 51.1186 113.154 51.1951H114.655C114.386 51.3828 114.175 51.6414 114.044 51.942C114.208 52.2149 114.295 52.5273 114.295 52.8457V57.5079C114.295 57.7512 114.244 57.992 114.147 58.2149C114.368 58.5838 114.715 58.8597 115.125 58.9911H113.486C113.201 59.1763 112.868 59.2748 112.528 59.2747H106.341C106.092 59.4344 105.888 59.6538 105.747 59.913C105.605 60.1721 105.531 60.4627 105.531 60.7579C105.531 60.1353 105.299 66.2711 105.299 66.2711C105.299 66.8222 114.927 67.0707 114.927 67.0707C115.171 67.0707 115.413 67.1217 115.637 67.2205C115.738 67.199 115.84 67.1902 115.943 67.1941C115.94 67.1919 115.937 67.1891 115.934 67.1869H117.453C117.219 67.3493 117.027 67.5661 116.895 67.8187C116.762 68.0714 116.693 68.3524 116.693 68.6376C116.693 68.5533 116.686 68.4691 116.674 68.3857C116.666 68.4048 116.657 68.4238 116.647 68.442C116.678 68.5717 116.693 68.7044 116.693 68.8375V73.2998C116.693 73.5318 116.739 73.7616 116.828 73.976C116.917 74.1903 117.047 74.3851 117.211 74.5492C117.375 74.7132 117.57 74.8434 117.784 74.9322C117.999 75.0209 118.228 75.0666 118.46 75.0666H115.741C115.49 75.198 115.21 75.2666 114.927 75.2665H103.853C103.566 75.4155 103.325 75.6404 103.157 75.9167C102.989 76.193 102.901 76.5101 102.901 76.8335V81.4956C102.901 81.7277 102.946 81.9574 103.035 82.1718C103.124 82.3861 103.254 82.5809 103.418 82.745C103.582 82.909 103.777 83.0392 103.991 83.128C104.206 83.2168 104.435 83.2625 104.667 83.2625H121.723C121.955 83.2625 122.185 83.2168 122.399 83.128C122.614 83.0392 122.808 82.909 122.973 82.745C123.137 82.5809 123.267 82.3861 123.356 82.1718C123.444 81.9574 123.49 81.7277 123.49 81.4956C123.49 81.7277 123.536 81.9574 123.625 82.1718C123.713 82.3861 123.843 82.5809 124.007 82.745C124.172 82.909 124.366 83.0392 124.581 83.128C124.795 83.2168 125.025 83.2625 125.257 83.2625H142.313C142.545 83.2625 142.774 83.2168 142.989 83.128C143.203 83.0392 143.398 82.909 143.562 82.745C143.726 82.5809 143.856 82.3861 143.945 82.1718C144.034 81.9574 144.08 81.7277 144.08 81.4956V76.8335C144.08 76.6014 144.034 76.3717 143.945 76.1573C143.856 75.943 143.726 75.7482 143.562 75.5841C143.398 75.4201 143.203 75.2899 142.989 75.2011C142.774 75.1123 142.545 75.0666 142.313 75.0666H156.106C156.338 75.0666 156.567 75.0209 156.782 74.9322C156.996 74.8434 157.191 74.7132 157.355 74.5492C157.519 74.3851 157.649 74.1903 157.738 73.9759C157.827 73.7616 157.872 73.5318 157.872 73.2998V68.6376C157.872 68.4056 157.827 68.1759 157.738 67.9615C157.649 67.7471 157.519 67.5524 157.355 67.3883C157.191 67.2242 156.996 67.0941 156.782 67.0053C156.567 66.9165 156.338 66.8708 156.106 66.8708ZM113.855 35.2032C113.621 35.3656 113.429 35.5824 113.297 35.8351C113.164 36.0877 113.095 36.3687 113.095 36.6539C113.095 36.3687 113.026 36.0877 112.894 35.8351C112.762 35.5824 112.57 35.3656 112.336 35.2032H113.855ZM111.866 42.9992C112.222 42.8853 112.534 42.6609 112.755 42.3583C112.976 42.0558 113.095 41.6908 113.095 41.3161C113.095 41.6908 113.215 42.0558 113.436 42.3583C113.657 42.6609 113.968 42.8853 114.325 42.9992H111.866ZM118.062 27.0074C118.419 26.8935 118.731 26.669 118.952 26.3665C119.173 26.0639 119.292 25.699 119.292 25.3243C119.292 25.699 119.411 26.0639 119.632 26.3665C119.854 26.669 120.165 26.8935 120.522 27.0074H118.062ZM123.49 76.8335C123.49 76.6014 123.444 76.3717 123.356 76.1573C123.267 75.943 123.137 75.7482 122.973 75.5841C122.808 75.4201 122.614 75.2899 122.399 75.2011C122.185 75.1123 121.955 75.0666 121.723 75.0666H125.257C125.025 75.0666 124.795 75.1123 124.581 75.2011C124.366 75.2899 124.172 75.4201 124.007 75.5841C123.843 75.7482 123.713 75.943 123.625 76.1573C123.536 76.3717 123.49 76.6014 123.49 76.8335ZM125.361 66.8708C125.595 66.7084 125.787 66.4916 125.919 66.239C126.052 65.9863 126.121 65.7053 126.121 65.4201C126.121 65.7053 126.19 65.9863 126.322 66.239C126.454 66.4916 126.646 66.7084 126.881 66.8708H125.361ZM126.121 60.7579C126.121 60.3832 126.001 60.0182 125.78 59.7157C125.559 59.4132 125.248 59.1887 124.891 59.0748H127.351C126.994 59.1887 126.682 59.4132 126.461 59.7157C126.24 60.0182 126.121 60.3832 126.121 60.7579ZM125.361 50.879C125.595 50.7166 125.787 50.4998 125.919 50.2471C126.052 49.9944 126.121 49.7135 126.121 49.4282C126.121 49.7135 126.19 49.9945 126.322 50.2471C126.454 50.4998 126.646 50.7166 126.881 50.879H125.361ZM126.121 44.7661C126.121 44.3914 126.001 44.0264 125.78 43.7239C125.559 43.4213 125.248 43.1969 124.891 43.0829H127.351C126.994 43.1969 126.682 43.4213 126.461 43.7239C126.24 44.0264 126.121 44.3914 126.121 44.7661ZM125.361 34.8871C125.595 34.7247 125.787 34.5079 125.919 34.2553C126.052 34.0026 126.121 33.7216 126.121 33.4364C126.121 33.7216 126.19 34.0026 126.322 34.2553C126.454 34.5079 126.646 34.7247 126.881 34.8871H125.361ZM126.121 28.7742C126.121 28.3995 126.001 28.0346 125.78 27.732C125.559 27.4295 125.248 27.205 124.891 27.0911H127.351C126.994 27.205 126.682 27.4295 126.461 27.732C126.24 28.0345 126.121 28.3995 126.121 28.7742ZM138.043 67.1869C137.808 67.3493 137.617 67.5661 137.484 67.8188C137.352 68.0714 137.283 68.3524 137.283 68.6376C137.283 68.3524 137.214 68.0714 137.082 67.8188C136.949 67.5661 136.758 67.3493 136.523 67.1869H138.043ZM135.516 75.0666C135.748 75.0666 135.978 75.0209 136.192 74.9321C136.407 74.8434 136.601 74.7132 136.765 74.5492C136.93 74.3851 137.06 74.1903 137.149 73.9759C137.237 73.7616 137.283 73.5318 137.283 73.2998C137.283 73.5318 137.329 73.7616 137.417 73.9759C137.506 74.1903 137.636 74.3851 137.8 74.5492C137.965 74.7132 138.159 74.8434 138.374 74.9321C138.588 75.0209 138.818 75.0666 139.05 75.0666H135.516Z" fill="#6C63FF"/>
<path opacity="0.45" d="M102.9 76.8334C102.9 76.7582 102.895 76.683 102.885 76.6085C102.895 76.683 102.9 76.7582 102.9 76.8334Z" fill="#6C63FF"/>
<path opacity="0.45" d="M92.5058 41.3162C92.5058 41.3721 92.5025 41.4273 92.4974 41.482C92.5025 41.4273 92.5058 41.3722 92.5058 41.3162Z" fill="#6C63FF"/>
<path opacity="0.45" d="M71.9367 41.5796C71.9474 41.6505 71.9625 41.7207 71.9818 41.7897C71.9625 41.7207 71.9474 41.6505 71.9367 41.5796Z" fill="#6C63FF"/>
<path opacity="0.45" d="M52.1644 51.9969C52.135 51.9709 52.1096 51.9408 52.089 51.9074C52.0635 51.8618 52.0465 51.8118 52.0389 51.76C52.0345 51.8811 52.0363 52.0024 52.0443 52.1233C52.0979 52.2923 52.1256 52.4685 52.1264 52.6458C52.1271 52.4735 52.1532 52.3022 52.2039 52.1375C52.1878 52.0975 52.1753 52.0562 52.1666 52.014C52.1654 52.0081 52.1654 52.0027 52.1644 51.9969Z" fill="#6C63FF"/>
<path opacity="0.45" d="M76.3463 18.8953H59.2904C59.0584 18.8953 58.8287 18.941 58.6143 19.0298C58.3999 19.1185 58.2052 19.2487 58.0411 19.4128C57.877 19.5768 57.7469 19.7716 57.6581 19.986C57.5693 20.2003 57.5236 20.4301 57.5236 20.6621C57.5236 20.4301 57.4779 20.2003 57.3891 19.986C57.3003 19.7716 57.1702 19.5768 57.0061 19.4128C56.842 19.2487 56.6473 19.1185 56.4329 19.0298C56.2186 18.941 55.9888 18.8953 55.7568 18.8953H38.7009C38.4689 18.8953 38.2391 18.941 38.0248 19.0298C37.8104 19.1185 37.6157 19.2487 37.4516 19.4128C37.2875 19.5768 37.1574 19.7716 37.0686 19.986C36.9798 20.2003 36.9341 20.4301 36.9341 20.6621V25.3243C36.9342 25.699 37.0533 26.0639 37.2744 26.3665C37.4954 26.669 37.8069 26.8935 38.1639 27.0074H24.94C24.708 27.0074 24.4782 27.0531 24.2638 27.1419C24.0495 27.2307 23.8547 27.3608 23.6906 27.5249C23.5266 27.6889 23.3964 27.8837 23.3077 28.0981C23.2189 28.3124 23.1732 28.5422 23.1732 28.7742V33.4364C23.1731 33.7216 23.2422 34.0026 23.3745 34.2553C23.5068 34.5079 23.6984 34.7247 23.9329 34.8871H11.9146C11.6825 34.8871 11.4528 34.9328 11.2384 35.0216C11.0241 35.1104 10.8293 35.2405 10.6652 35.4046C10.5012 35.5687 10.371 35.7634 10.2822 35.9778C10.1934 36.1922 10.1477 36.4219 10.1477 36.6539V41.3161C10.1477 41.5481 10.1934 41.7779 10.2822 41.9922C10.371 42.2066 10.5012 42.4014 10.6652 42.5655C10.8293 42.7295 11.0241 42.8597 11.2384 42.9484C11.4528 43.0372 11.6825 43.0829 11.9146 43.0829H24.4029C24.046 43.1969 23.7345 43.4213 23.5135 43.7239C23.2924 44.0264 23.1732 44.3914 23.1732 44.7661V49.4283C23.1731 49.7135 23.2422 49.9945 23.3745 50.2471C23.5068 50.4998 23.6984 50.7166 23.9329 50.879H12.7142C12.4821 50.879 12.2524 50.9247 12.038 51.0135C11.8237 51.1023 11.6289 51.2324 11.4648 51.3965C11.3008 51.5605 11.1706 51.7553 11.0818 51.9697C10.993 52.184 10.9473 52.4138 10.9473 52.6458V57.308C10.9473 57.54 10.993 57.7697 11.0818 57.9841C11.1706 58.1985 11.3008 58.3932 11.4648 58.5573C11.6289 58.7214 11.8237 58.8515 12.038 58.9403C12.2524 59.0291 12.4821 59.0748 12.7142 59.0748H24.4029C24.046 59.1887 23.7345 59.4132 23.5135 59.7157C23.2924 60.0183 23.1732 60.3832 23.1732 60.7579V65.4201C23.1732 65.6521 23.2189 65.8819 23.3077 66.0962C23.3964 66.3106 23.5266 66.5054 23.6906 66.6694C23.8547 66.8335 24.0495 66.9636 24.2638 67.0524C24.4782 67.1412 24.708 67.1869 24.94 67.1869H35.0952C34.8607 67.3493 34.6691 67.5661 34.5367 67.8188C34.4044 68.0714 34.3353 68.3524 34.3354 68.6377V73.2998C34.3354 73.7684 34.5216 74.2178 34.8529 74.5492C35.1842 74.8805 35.6336 75.0667 36.1022 75.0667H22.3093C22.0772 75.0667 21.8475 75.1124 21.6331 75.2011C21.4188 75.2899 21.224 75.4201 21.0599 75.5841C20.8959 75.7482 20.7657 75.943 20.6769 76.1573C20.5881 76.3717 20.5424 76.6015 20.5424 76.8335V81.4957C20.5424 81.7277 20.5881 81.9574 20.6769 82.1718C20.7657 82.3862 20.8959 82.5809 21.0599 82.745C21.224 82.909 21.4188 83.0392 21.6331 83.128C21.8475 83.2168 22.0772 83.2625 22.3093 83.2625H39.3651C39.5971 83.2625 39.8269 83.2168 40.0413 83.128C40.2556 83.0392 40.4504 82.909 40.6145 82.745C40.7785 82.5809 40.9087 82.3862 40.9975 82.1718C41.0863 81.9574 41.1319 81.7277 41.1319 81.4957C41.1319 81.7277 41.1776 81.9574 41.2664 82.1718C41.3552 82.3862 41.4854 82.5809 41.6494 82.745C41.8135 82.909 42.0083 83.0392 42.2226 83.128C42.437 83.2168 42.6668 83.2625 42.8988 83.2625H59.9546C60.1867 83.2625 60.4164 83.2168 60.6308 83.128C60.8451 83.0392 61.0399 82.909 61.204 82.745C61.368 82.5809 61.4982 82.3862 61.587 82.1718C61.6758 81.9574 61.7215 81.7277 61.7215 81.4957V76.8335C61.7214 76.5101 61.6326 76.193 61.4646 75.9167C61.2967 75.6404 61.0561 75.4155 60.7691 75.2666H57.0915C56.8079 75.2666 56.5285 75.198 56.2771 75.0667H53.1581C53.6267 75.0667 54.0761 74.8805 54.4074 74.5492C54.7388 74.2178 54.9249 73.7684 54.9249 73.2998C54.9249 74.0686 55.3247 68.8375 55.3247 68.8375C55.3247 68.6055 55.3704 68.3758 55.4592 68.1614C55.548 67.9471 55.6781 67.7523 55.8422 67.5882C56.0063 67.4241 56.201 67.294 56.4154 67.2052C56.6298 67.1164 56.8595 67.0707 57.0915 67.0707L63.5924 66.8708C63.7778 66.741 63.9367 66.577 64.0606 66.3876C63.9685 66.1713 63.9208 65.9387 63.9203 65.7037V61.0415C63.92 60.6957 64.0217 60.3576 64.2126 60.0693C64.0737 59.7434 63.8403 59.4666 63.5426 59.2747H54.293C53.9529 59.2749 53.6202 59.1763 53.335 58.9911H50.8966C51.2535 58.8772 51.565 58.6527 51.7861 58.3502C52.0071 58.0476 52.1263 57.6827 52.1263 57.308L52.0637 52.6798C52.0637 52.4713 52.0526 52.2868 52.0443 52.1233C51.9279 51.7471 51.6895 51.4205 51.3666 51.1951H52.8861C52.8747 51.203 52.8645 51.2127 52.8533 51.2209C53.7146 51.1715 63.5545 50.5943 64.3544 49.9505C64.334 49.8283 64.3301 49.7039 64.3427 49.5806C64.3284 49.4918 64.3208 49.402 64.3201 49.312V44.6499C64.3201 44.592 64.3234 44.5349 64.3288 44.4785C64.2755 44.1574 64.1347 43.8572 63.9219 43.611C63.709 43.3648 63.4324 43.1821 63.1224 43.0829H65.2725C65.5239 42.9516 65.8033 42.883 66.087 42.883H70.9638C71.2508 42.7341 71.4915 42.5093 71.6595 42.233C71.8274 41.9566 71.9162 41.6395 71.9163 41.3161V36.6539C71.9163 36.3687 71.8473 36.0877 71.7149 35.8351C71.5826 35.5824 71.391 35.3656 71.1565 35.2032L66.087 34.8871C65.2279 34.8871 64.6596 34.5725 65.112 34.8871H63.5924C63.8253 34.7257 64.0159 34.5105 64.1481 34.2598C64.2802 34.0091 64.35 33.7302 64.3515 33.4468C64.331 33.3392 64.3205 33.2299 64.3201 33.1203V28.4581C64.3201 28.4543 64.3207 28.4506 64.3207 28.4468C64.2615 28.1339 64.119 27.8427 63.908 27.6041C63.6971 27.3655 63.4257 27.1883 63.1224 27.0911H64.968C65.2833 26.8321 65.6789 26.6907 66.087 26.6913H77.4637C77.6668 26.526 77.8304 26.3176 77.9427 26.0811C78.0551 25.8446 78.1133 25.5861 78.1131 25.3243V20.6621C78.1131 20.4301 78.0674 20.2003 77.9786 19.986C77.8898 19.7716 77.7597 19.5768 77.5956 19.4128C77.4315 19.2487 77.2368 19.1185 77.0224 19.0298C76.8081 18.941 76.5783 18.8953 76.3463 18.8953ZM31.497 35.2032C31.2625 35.3656 31.0709 35.5824 30.9386 35.8351C30.8063 36.0877 30.7372 36.3687 30.7372 36.6539C30.7373 36.3687 30.6682 36.0877 30.5359 35.8351C30.4036 35.5824 30.212 35.3656 29.9775 35.2032H31.497ZM30.7372 41.3161C30.7373 41.6908 30.8565 42.0558 31.0775 42.3583C31.2986 42.6609 31.6101 42.8853 31.967 42.9992H29.5075C29.8644 42.8853 30.1759 42.6609 30.397 42.3583C30.618 42.0558 30.7372 41.6908 30.7372 41.3161ZM32.2966 51.1951C32.0621 51.3574 31.8705 51.5743 31.7382 51.8269C31.6058 52.0796 31.5368 52.3606 31.5368 52.6458C31.5369 52.3606 31.4678 52.0796 31.3355 51.8269C31.2032 51.5743 31.0116 51.3574 30.7771 51.1951H32.2966ZM30.307 58.9911C30.664 58.8772 30.9755 58.6527 31.1965 58.3502C31.4176 58.0476 31.5368 57.6827 31.5368 57.308C31.5369 57.6827 31.6561 58.0476 31.8771 58.3502C32.0982 58.6527 32.4097 58.8772 32.7666 58.9911H30.307ZM52.0865 35.2032C51.852 35.3656 51.6604 35.5824 51.5281 35.8351C51.3958 36.0877 51.3267 36.3687 51.3268 36.6539C51.3268 36.3687 51.2578 36.0877 51.1254 35.8351C50.9931 35.5824 50.8015 35.3656 50.567 35.2032H52.0865ZM41.1319 76.8335C41.132 76.6015 41.0863 76.3717 40.9975 76.1573C40.9087 75.943 40.7785 75.7482 40.6145 75.5841C40.4504 75.4201 40.2556 75.2899 40.0413 75.2011C39.8269 75.1124 39.5971 75.0667 39.3651 75.0667H42.8988C42.6668 75.0667 42.437 75.1124 42.2226 75.2011C42.0083 75.2899 41.8135 75.4201 41.6494 75.5841C41.4854 75.7482 41.3552 75.943 41.2664 76.1573C41.1776 76.3717 41.1319 76.6015 41.1319 76.8335ZM43.0029 66.8708C43.2374 66.7085 43.429 66.4916 43.5613 66.239C43.6937 65.9863 43.7627 65.7053 43.7627 65.4201C43.7626 65.7053 43.8317 65.9863 43.964 66.239C44.0963 66.4916 44.288 66.7085 44.5225 66.8708H43.0029ZM43.7627 60.7579C43.7626 60.3832 43.6434 60.0183 43.4224 59.7157C43.2013 59.4132 42.8898 59.1887 42.5329 59.0748H44.9924C44.6355 59.1887 44.324 59.4132 44.103 59.7157C43.8819 60.0183 43.7627 60.3832 43.7627 60.7579ZM43.0029 50.879C43.2374 50.7166 43.429 50.4998 43.5613 50.2471C43.6937 49.9945 43.7627 49.7135 43.7627 49.4283C43.7626 49.7135 43.8317 49.9945 43.964 50.2471C44.0963 50.4998 44.288 50.7166 44.5225 50.879H43.0029ZM43.7627 44.7661C43.7626 44.3914 43.6434 44.0264 43.4224 43.7239C43.2013 43.4213 42.8898 43.1969 42.5329 43.0829H44.9924C44.6355 43.1969 44.324 43.4213 44.103 43.7239C43.8819 44.0264 43.7627 44.3914 43.7627 44.7661ZM43.0029 34.8871C43.2374 34.7248 43.429 34.5079 43.5613 34.2553C43.6937 34.0026 43.7627 33.7216 43.7627 33.4364C43.7626 33.7216 43.8317 34.0026 43.964 34.2553C44.0963 34.5079 44.288 34.7247 44.5225 34.8871H43.0029ZM43.7627 28.7742C43.7626 28.3995 43.6434 28.0346 43.4224 27.732C43.2013 27.4295 42.8898 27.205 42.5329 27.0911H44.9924C44.6355 27.205 44.324 27.4295 44.103 27.732C43.8819 28.0346 43.7627 28.3995 43.7627 28.7742ZM50.097 42.9992C50.4539 42.8853 50.7654 42.6609 50.9865 42.3583C51.2075 42.0558 51.3267 41.6908 51.3268 41.3161C51.3268 41.6908 51.446 42.0558 51.667 42.3583C51.8881 42.6609 52.1996 42.8853 52.5566 42.9992H50.097ZM56.2938 27.0074C56.6508 26.8935 56.9623 26.669 57.1833 26.3665C57.4044 26.0639 57.5235 25.699 57.5236 25.3243C57.5237 25.699 57.6428 26.0639 57.8639 26.3665C58.0849 26.669 58.3964 26.8935 58.7534 27.0074H56.2938Z" fill="#6C63FF"/>
<path opacity="0.45" d="M72.4971 35.3476C72.5056 35.3398 72.514 35.3319 72.5227 35.3243C72.514 35.3319 72.5056 35.3398 72.4971 35.3476Z" fill="#6C63FF"/>
<path opacity="0.45" d="M72.3799 35.4641C72.3711 35.4737 72.3623 35.4832 72.3537 35.4929C72.3623 35.4831 72.3711 35.4737 72.3799 35.4641Z" fill="#6C63FF"/>
<path opacity="0.45" d="M72.2314 35.6485C72.2356 35.6426 72.2402 35.6371 72.2444 35.6312C72.2402 35.6371 72.2356 35.6426 72.2314 35.6485Z" fill="#6C63FF"/>
<path opacity="0.45" d="M71.9923 41.8257C72.0128 41.8945 72.0375 41.9619 72.0662 42.0276C72.0375 41.9619 72.0128 41.8945 71.9923 41.8257Z" fill="#6C63FF"/>
<path opacity="0.45" d="M72.1807 42.2452C72.2203 42.3086 72.2639 42.3693 72.3113 42.4272C72.2639 42.3694 72.2203 42.3086 72.1807 42.2452Z" fill="#6C63FF"/>
<path opacity="0.45" d="M72.0751 42.0463C72.1057 42.1141 72.1406 42.18 72.1796 42.2435C72.1406 42.18 72.1057 42.1141 72.0751 42.0463Z" fill="#6C63FF"/>
<path opacity="0.45" d="M71.9646 36.2501C71.9698 36.2283 71.9754 36.2067 71.9813 36.1851C71.9754 36.2067 71.9698 36.2283 71.9646 36.2501Z" fill="#6C63FF"/>
<path opacity="0.45" d="M72.0243 36.0516C72.0309 36.0336 72.037 36.0154 72.0441 35.9976C72.037 36.0154 72.0309 36.0335 72.0243 36.0516Z" fill="#6C63FF"/>
<path opacity="0.45" d="M71.929 36.4504C71.9314 36.4295 71.9353 36.4091 71.9385 36.3884C71.9353 36.4091 71.9314 36.4295 71.929 36.4504Z" fill="#6C63FF"/>
<path opacity="0.45" d="M72.1216 35.8296C72.123 35.8271 72.124 35.8244 72.1254 35.8219C72.124 35.8244 72.123 35.8271 72.1216 35.8296Z" fill="#6C63FF"/>
<path opacity="0.1" d="M38.5441 27.0911L56.3134 27.0911C57.0922 27.0911 57.7235 26.4597 57.7235 25.6809V20.3054C57.7235 19.5266 57.0922 18.8952 56.3134 18.8952H38.5441C37.7653 18.8952 37.134 19.5266 37.134 20.3054V25.6809C37.134 26.4597 37.7653 27.0911 38.5441 27.0911Z" fill="black"/>
<path opacity="0.1" d="M100.113 27.0911L117.882 27.0911C118.661 27.0911 119.292 26.4597 119.292 25.6809V20.3054C119.292 19.5266 118.661 18.8952 117.882 18.8952H100.113C99.3339 18.8952 98.7026 19.5266 98.7026 20.3054V25.6809C98.7026 26.4597 99.3339 27.0911 100.113 27.0911Z" fill="black"/>
<path opacity="0.1" d="M127.499 35.087H145.268C146.047 35.087 146.678 34.4557 146.678 33.6769V28.3013C146.678 27.5225 146.047 26.8912 145.268 26.8912H127.499C126.72 26.8912 126.089 27.5225 126.089 28.3013V33.6769C126.089 34.4557 126.72 35.087 127.499 35.087Z" fill="black"/>
<path opacity="0.1" d="M93.9159 43.0829H111.685C112.464 43.0829 113.095 42.4516 113.095 41.6728V36.2973C113.095 35.5185 112.464 34.8871 111.685 34.8871H93.9159C93.1371 34.8871 92.5058 35.5185 92.5058 36.2973V41.6728C92.5058 42.4516 93.1371 43.0829 93.9159 43.0829Z" fill="black"/>
<path opacity="0.1" d="M127.499 51.2787H145.268C146.047 51.2787 146.678 50.6474 146.678 49.8686V44.4931C146.678 43.7143 146.047 43.0829 145.268 43.0829H127.499C126.72 43.0829 126.089 43.7143 126.089 44.4931V49.8686C126.089 50.6474 126.72 51.2787 127.499 51.2787Z" fill="black"/>
<path opacity="0.1" d="M127.499 67.2706H145.268C146.047 67.2706 146.678 66.6393 146.678 65.8605V60.4849C146.678 59.7062 146.047 59.0748 145.268 59.0748H127.499C126.72 59.0748 126.089 59.7062 126.089 60.4849V65.8605C126.089 66.6393 126.72 67.2706 127.499 67.2706Z" fill="black"/>
<path opacity="0.1" d="M135.997 67.0707H117.98C117.702 67.0708 117.431 67.1611 117.209 67.328C116.986 67.4949 116.824 67.7295 116.746 67.9965C116.75 68.0691 116.746 68.142 116.731 68.2134C116.722 68.2552 116.71 68.2964 116.694 68.3365C116.694 68.3434 116.693 68.3501 116.693 68.3571V73.9801C116.693 74.3213 116.829 74.6485 117.07 74.8897C117.311 75.131 117.639 75.2665 117.98 75.2665H135.997C136.338 75.2665 136.665 75.131 136.906 74.8897C137.147 74.6485 137.283 74.3213 137.283 73.9801V68.3571C137.283 68.1881 137.25 68.0209 137.185 67.8648C137.12 67.7087 137.026 67.5669 136.906 67.4475C136.787 67.328 136.645 67.2332 136.489 67.1686C136.333 67.104 136.166 67.0707 135.997 67.0707Z" fill="black"/>
<path opacity="0.1" d="M104.311 83.2625H122.08C122.859 83.2625 123.49 82.6311 123.49 81.8523V76.4768C123.49 75.698 122.859 75.0666 122.08 75.0666H104.311C103.532 75.0666 102.9 75.698 102.9 76.4768V81.8523C102.9 82.6311 103.532 83.2625 104.311 83.2625Z" fill="black"/>
<path opacity="0.1" d="M45.1407 35.087H62.91C63.6888 35.087 64.3201 34.4557 64.3201 33.6769V28.3013C64.3201 27.5225 63.6888 26.8912 62.91 26.8912H45.1407C44.362 26.8912 43.7306 27.5225 43.7306 28.3013V33.6769C43.7306 34.4557 44.362 35.087 45.1407 35.087Z" fill="black"/>
<path opacity="0.1" d="M32.3473 43.0829H50.1165C50.8953 43.0829 51.5266 42.4516 51.5266 41.6728V36.2973C51.5266 35.5185 50.8953 34.8871 50.1165 34.8871H32.3473C31.5685 34.8871 30.9371 35.5185 30.9371 36.2973V41.6728C30.9371 42.4516 31.5685 43.0829 32.3473 43.0829Z" fill="black"/>
<path opacity="0.1" d="M24.5512 51.2787H42.3205C43.0993 51.2787 43.7306 50.6474 43.7306 49.8686V44.4931C43.7306 43.7143 43.0993 43.0829 42.3205 43.0829H24.5512C23.7724 43.0829 23.1411 43.7143 23.1411 44.4931V49.8686C23.1411 50.6474 23.7724 51.2787 24.5512 51.2787Z" fill="black"/>
<path opacity="0.1" d="M32.947 59.2747H50.7162C51.495 59.2747 52.1264 58.6434 52.1264 57.8646V52.489C52.1264 51.7102 51.495 51.0789 50.7162 51.0789H32.947C32.1682 51.0789 31.5369 51.7102 31.5369 52.489V57.8646C31.5369 58.6434 32.1682 59.2747 32.947 59.2747Z" fill="black"/>
<path opacity="0.1" d="M24.5512 67.2706H42.3205C43.0993 67.2706 43.7306 66.6393 43.7306 65.8605V60.4849C43.7306 59.7062 43.0993 59.0748 42.3205 59.0748H24.5512C23.7724 59.0748 23.1411 59.7062 23.1411 60.4849V65.8605C23.1411 66.6393 23.7724 67.2706 24.5512 67.2706Z" fill="black"/>
<path opacity="0.45" d="M15.2366 75.2754H33.0058C33.7846 75.2754 34.416 74.6441 34.416 73.8653V68.4897C34.416 67.7109 33.7846 67.0796 33.0058 67.0796H15.2366C14.4578 67.0796 13.8264 67.7109 13.8264 68.4897V73.8653C13.8264 74.6441 14.4578 75.2754 15.2366 75.2754Z" fill="#6C63FF"/>
<path opacity="0.45" d="M135.454 59.2659H153.223C154.002 59.2659 154.633 58.6345 154.633 57.8557V52.4802C154.633 51.7014 154.002 51.07 153.223 51.07H135.454C134.675 51.07 134.044 51.7014 134.044 52.4802V57.8557C134.044 58.6345 134.675 59.2659 135.454 59.2659Z" fill="#6C63FF"/>
<path opacity="0.45" d="M134.581 43.1107H152.35C153.129 43.1107 153.76 42.4794 153.76 41.7006V36.325C153.76 35.5462 153.129 34.9149 152.35 34.9149H134.581C133.802 34.9149 133.171 35.5462 133.171 36.325V41.7006C133.171 42.4794 133.802 43.1107 134.581 43.1107Z" fill="#6C63FF"/>
<path opacity="0.45" d="M144.914 83.1346H162.683C163.462 83.1346 164.094 82.5033 164.094 81.7245V76.3489C164.094 75.5702 163.462 74.9388 162.683 74.9388H144.914C144.135 74.9388 143.504 75.5702 143.504 76.3489V81.7245C143.504 82.5033 144.135 83.1346 144.914 83.1346Z" fill="#6C63FF"/>
<path opacity="0.45" d="M1.41012 83.2802H19.1794C19.9582 83.2802 20.5895 82.6488 20.5895 81.87V76.4945C20.5895 75.7157 19.9582 75.0843 19.1794 75.0843H1.41012C0.631332 75.0843 -1.90735e-06 75.7157 -1.90735e-06 76.4945V81.87C-1.90735e-06 82.6488 0.631332 83.2802 1.41012 83.2802Z" fill="#6C63FF"/>
<path opacity="0.45" d="M4.17542 67.1251H21.9447C22.7235 67.1251 23.3548 66.4937 23.3548 65.7149V60.3394C23.3548 59.5606 22.7235 58.9292 21.9447 58.9292H4.17542C3.39662 58.9292 2.76529 59.5606 2.76529 60.3394V65.7149C2.76529 66.4937 3.39662 67.1251 4.17542 67.1251Z" fill="#6C63FF"/>
<path opacity="0.45" d="M4.17542 51.261H21.9447C22.7235 51.261 23.3548 50.6297 23.3548 49.8509V44.4753C23.3548 43.6966 22.7235 43.0652 21.9447 43.0652H4.17542C3.39662 43.0652 2.76529 43.6966 2.76529 44.4753V49.8509C2.76529 50.6297 3.39662 51.261 4.17542 51.261Z" fill="#6C63FF"/>
<path opacity="0.45" d="M4.90311 35.1059H22.6724C23.4512 35.1059 24.0825 34.4746 24.0825 33.6958V28.3202C24.0825 27.5414 23.4512 26.9101 22.6724 26.9101H4.90311C4.12432 26.9101 3.49298 27.5414 3.49298 28.3202V33.6958C3.49298 34.4746 4.12432 35.1059 4.90311 35.1059Z" fill="#6C63FF"/>
<path opacity="0.1" d="M4.90311 35.1059H22.6724C23.4512 35.1059 24.0825 34.4746 24.0825 33.6958V28.3202C24.0825 27.5414 23.4512 26.9101 22.6724 26.9101H4.90311C4.12432 26.9101 3.49298 27.5414 3.49298 28.3202V33.6958C3.49298 34.4746 4.12432 35.1059 4.90311 35.1059Z" fill="black"/>
<path opacity="0.45" d="M18.0019 27.1011L35.7711 27.1011C36.5499 27.1011 37.1812 26.4698 37.1812 25.691V20.3154C37.1812 19.5366 36.5499 18.9053 35.7711 18.9053H18.0019C17.2231 18.9053 16.5917 19.5366 16.5917 20.3154V25.691C16.5917 26.4698 17.2231 27.1011 18.0019 27.1011Z" fill="#6C63FF"/>
<path opacity="0.1" d="M35.9454 75.2665H53.7147C54.4935 75.2665 55.1248 74.6352 55.1248 73.8564V68.4808C55.1248 67.702 54.4935 67.0707 53.7147 67.0707H35.9454C35.1666 67.0707 34.5353 67.702 34.5353 68.4808V73.8564C34.5353 74.6352 35.1666 75.2665 35.9454 75.2665Z" fill="black"/>
<path opacity="0.1" d="M21.9526 83.2625H39.7218C40.5006 83.2625 41.132 82.6311 41.132 81.8523V76.4768C41.132 75.698 40.5006 75.0666 39.7218 75.0666H21.9526C21.1738 75.0666 20.5424 75.698 20.5424 76.4768V81.8523C20.5424 82.6311 21.1738 83.2625 21.9526 83.2625Z" fill="black"/>
</g>
<path opacity="0.5" d="M129.282 9.22799C131.83 9.22799 133.896 7.16224 133.896 4.614C133.896 2.06576 131.83 0 129.282 0C126.734 0 124.668 2.06576 124.668 4.614C124.668 7.16224 126.734 9.22799 129.282 9.22799Z" fill="#6C63FF"/>
<path opacity="0.5" d="M40.1948 12.9793H39.097C39.1981 12.9796 39.2983 12.9599 39.3918 12.9215C39.4852 12.883 39.5702 12.8264 39.6418 12.755C39.7134 12.6836 39.7702 12.5988 39.809 12.5055C39.8477 12.4121 39.8677 12.312 39.8677 12.2109C39.8677 12.1098 39.8477 12.0097 39.809 11.9163C39.7702 11.8229 39.7134 11.7381 39.6418 11.6667C39.5702 11.5953 39.4852 11.5388 39.3918 11.5003C39.2983 11.4618 39.1981 11.4422 39.097 11.4424H30.2051C30.104 11.4422 30.0039 11.4618 29.9104 11.5003C29.8169 11.5388 29.7319 11.5953 29.6603 11.6667C29.5888 11.7381 29.5319 11.8229 29.4932 11.9163C29.4544 12.0097 29.4345 12.1098 29.4345 12.2109C29.4345 12.312 29.4544 12.4121 29.4932 12.5055C29.5319 12.5988 29.5888 12.6836 29.6603 12.755C29.7319 12.8264 29.8169 12.883 29.9104 12.9215C30.0039 12.9599 30.104 12.9796 30.2051 12.9793H31.3029C31.2019 12.9791 31.1018 12.9988 31.0084 13.0374C30.9149 13.0759 30.83 13.1324 30.7585 13.2038C30.687 13.2752 30.6303 13.36 30.5915 13.4533C30.5528 13.5466 30.5329 13.6467 30.5329 13.7477C30.5329 13.8488 30.5528 13.9488 30.5915 14.0422C30.6303 14.1355 30.687 14.2203 30.7585 14.2917C30.83 14.363 30.9149 14.4196 31.0084 14.4581C31.1018 14.4967 31.2019 14.5164 31.3029 14.5162H29.766C29.5626 14.5168 29.3677 14.598 29.2241 14.742C29.0805 14.8861 28.9998 15.0812 28.9998 15.2846C28.9998 15.488 29.0805 15.6831 29.2241 15.8272C29.3677 15.9712 29.5626 16.0524 29.766 16.053H38.6579C38.8613 16.0524 39.0562 15.9712 39.1998 15.8272C39.3435 15.6831 39.4241 15.488 39.4241 15.2846C39.4241 15.0812 39.3435 14.8861 39.1998 14.742C39.0562 14.598 38.8613 14.5168 38.6579 14.5162H40.1948C40.3983 14.5158 40.5934 14.4346 40.7371 14.2905C40.8809 14.1465 40.9616 13.9513 40.9616 13.7477C40.9616 13.5442 40.8809 13.349 40.7371 13.2049C40.5934 13.0609 40.3983 12.9797 40.1948 12.9793Z" fill="#DEE3F3"/>
<path opacity="0.5" d="M128.697 4.05954H127.862C128.017 4.05954 128.166 3.99793 128.275 3.88825C128.385 3.77858 128.447 3.62982 128.447 3.47472C128.447 3.31961 128.385 3.17086 128.275 3.06119C128.166 2.95151 128.017 2.88989 127.862 2.88989H121.095C120.94 2.88989 120.791 2.95151 120.681 3.06119C120.571 3.17086 120.51 3.31961 120.51 3.47472C120.51 3.62982 120.571 3.77858 120.681 3.88825C120.791 3.99793 120.94 4.05954 121.095 4.05954H121.93C121.775 4.05954 121.626 4.12116 121.517 4.23084C121.407 4.34051 121.345 4.48926 121.345 4.64437C121.345 4.79948 121.407 4.94823 121.517 5.0579C121.626 5.16758 121.775 5.2292 121.93 5.2292H120.76C120.684 5.2292 120.608 5.24432 120.537 5.27371C120.466 5.3031 120.401 5.34618 120.347 5.40049C120.293 5.45479 120.249 5.51926 120.22 5.59022C120.191 5.66117 120.176 5.73722 120.176 5.81402C120.176 5.89082 120.191 5.96687 120.22 6.03783C120.249 6.10878 120.293 6.17325 120.347 6.22756C120.401 6.28186 120.466 6.32494 120.537 6.35433C120.608 6.38372 120.684 6.39885 120.76 6.39885H127.528C127.604 6.39885 127.681 6.38372 127.751 6.35433C127.822 6.32494 127.887 6.28186 127.941 6.22756C127.996 6.17325 128.039 6.10878 128.068 6.03783C128.097 5.96687 128.113 5.89082 128.113 5.81402C128.113 5.73722 128.097 5.66117 128.068 5.59022C128.039 5.51926 127.996 5.45479 127.941 5.40049C127.887 5.34618 127.822 5.3031 127.751 5.27371C127.681 5.24432 127.604 5.2292 127.528 5.2292H128.697C128.852 5.2292 129.001 5.16758 129.111 5.0579C129.221 4.94823 129.282 4.79948 129.282 4.64437C129.282 4.48926 129.221 4.34051 129.111 4.23084C129.001 4.12116 128.852 4.05954 128.697 4.05954H128.697Z" fill="#DEE3F3"/>
<path opacity="0.5" d="M61.2542 2.1305H60.1565C60.2576 2.13079 60.3577 2.11112 60.4512 2.07264C60.5447 2.03415 60.6297 1.9776 60.7013 1.90621C60.7729 1.83483 60.8297 1.75002 60.8684 1.65664C60.9072 1.56327 60.9271 1.46316 60.9271 1.36206C60.9271 1.26096 60.9072 1.16086 60.8684 1.06748C60.8297 0.974109 60.7729 0.889299 60.7013 0.817915C60.6297 0.74653 60.5447 0.689974 60.4512 0.651487C60.3577 0.613001 60.2576 0.59334 60.1565 0.593631H51.2646C51.1635 0.59334 51.0633 0.613001 50.9698 0.651487C50.8764 0.689974 50.7914 0.74653 50.7198 0.817915C50.6482 0.889299 50.5914 0.974109 50.5526 1.06748C50.5139 1.16086 50.4939 1.26096 50.4939 1.36206C50.4939 1.46316 50.5139 1.56327 50.5526 1.65664C50.5914 1.75002 50.6482 1.83483 50.7198 1.90621C50.7914 1.9776 50.8764 2.03415 50.9698 2.07264C51.0633 2.11112 51.1635 2.13079 51.2646 2.1305H52.3623C52.2613 2.13029 52.1612 2.15001 52.0678 2.18854C51.9744 2.22706 51.8895 2.28363 51.818 2.35501C51.7465 2.42638 51.6897 2.51117 51.651 2.6045C51.6123 2.69783 51.5924 2.79788 51.5924 2.89893C51.5924 2.99997 51.6123 3.10002 51.651 3.19336C51.6897 3.28669 51.7465 3.37147 51.818 3.44284C51.8895 3.51422 51.9744 3.57079 52.0678 3.60932C52.1612 3.64784 52.2613 3.66756 52.3623 3.66736H50.8255C50.6221 3.66794 50.4272 3.74916 50.2836 3.89321C50.1399 4.03725 50.0593 4.23237 50.0593 4.43579C50.0593 4.63921 50.1399 4.83433 50.2836 4.97837C50.4272 5.12242 50.6221 5.20364 50.8255 5.20422H59.7174C59.9208 5.20364 60.1157 5.12242 60.2593 4.97837C60.4029 4.83433 60.4836 4.63921 60.4836 4.43579C60.4836 4.23237 60.4029 4.03725 60.2593 3.89321C60.1157 3.74916 59.9208 3.66794 59.7174 3.66736H61.2542C61.4578 3.66694 61.6528 3.5858 61.7966 3.44174C61.9404 3.29767 62.0211 3.10246 62.0211 2.89893C62.0211 2.6954 61.9404 2.50018 61.7966 2.35612C61.6528 2.21205 61.4578 2.13091 61.2542 2.1305Z" fill="#DEE3F3"/>
<path d="M95.2375 42.2372H62.3608C61.218 42.2372 60.2916 43.1637 60.2916 44.3064V57.3345C60.2916 58.4773 61.218 59.4037 62.3608 59.4037H95.2375C96.3803 59.4037 97.3067 58.4773 97.3067 57.3345V44.3064C97.3067 43.1637 96.3803 42.2372 95.2375 42.2372Z" fill="#6C63FF"/>
<path opacity="0.1" d="M94.3562 56.769H63.242V57.0909H94.3562V56.769Z" fill="black"/>
<path opacity="0.3" d="M94.3562 44.9196H63.242V56.7215H94.3562V44.9196Z" fill="black"/>
<path opacity="0.1" d="M70.4841 55.3584C72.8543 55.3584 74.7758 53.437 74.7758 51.0668C74.7758 48.6966 72.8543 46.7752 70.4841 46.7752C68.114 46.7752 66.1925 48.6966 66.1925 51.0668C66.1925 53.437 68.114 55.3584 70.4841 55.3584Z" fill="black"/>
<path opacity="0.1" d="M87.1141 55.3584C89.4843 55.3584 91.4057 53.437 91.4057 51.0668C91.4057 48.6966 89.4843 46.7752 87.1141 46.7752C84.7439 46.7752 82.8225 48.6966 82.8225 51.0668C82.8225 53.437 84.7439 55.3584 87.1141 55.3584Z" fill="black"/>
<path d="M82.0173 59.4033H75.5802V63.1593H82.0173V59.4033Z" fill="#6C63FF"/>
<path d="M92.2104 62.086H65.3878V83.5441H92.2104V62.086Z" fill="#6C63FF"/>
<path d="M92.7469 87.8356H64.8514V90.5179H92.7469V87.8356Z" fill="#6C63FF"/>
<path d="M69.4113 96.9553V100.174V105.002V107.684V109.294H74.2393V107.684V105.002V100.174V96.9553V93.2002H69.4113V96.9553Z" fill="#6C63FF"/>
<path d="M83.8954 93.2002V96.9553V100.174V105.002V107.684V109.294H88.7234V107.684V105.002V100.174V96.9553V93.2002H83.8954Z" fill="#6C63FF"/>
<path d="M61.7344 66.9142V71.8759C60.4092 72.1074 59.1745 72.7026 58.168 73.5951C57.2346 74.4595 56.5088 75.5238 56.0448 76.7084C55.4242 78.212 55.1224 79.8819 54.9993 81.4607C54.8474 83.5902 54.947 85.7301 55.2961 87.8362H49.9316C49.7038 84.8708 49.7765 82.3265 50.072 80.1418C50.4033 77.6788 51.0166 75.6739 51.7937 74.0434C53.3478 70.7836 55.5584 69.0151 57.5005 68.0546C59.8071 66.9142 61.7344 66.9142 61.7344 66.9142Z" fill="#6C63FF"/>
<path opacity="0.3" d="M74.2393 93.2002H69.4113V96.9553H74.2393V93.2002Z" fill="black"/>
<path opacity="0.3" d="M74.2393 100.174H69.4113V105.002H74.2393V100.174Z" fill="black"/>
<path opacity="0.3" d="M74.2393 107.684H69.4113V109.294H74.2393V107.684Z" fill="black"/>
<path opacity="0.3" d="M88.7235 93.2002H83.8954V96.9553H88.7235V93.2002Z" fill="black"/>
<path opacity="0.3" d="M88.7235 100.174H83.8954V105.002H88.7235V100.174Z" fill="black"/>
<path opacity="0.3" d="M88.7235 107.684H83.8954V109.294H88.7235V107.684Z" fill="black"/>
<path opacity="0.3" d="M61.7344 66.9142V71.8759C60.4092 72.1074 59.1745 72.7026 58.168 73.5951L57.5005 68.0546C59.8071 66.9142 61.7344 66.9142 61.7344 66.9142Z" fill="black"/>
<path opacity="0.3" d="M56.0449 76.7084C55.4242 78.212 55.1225 79.882 54.9993 81.4608L50.0721 80.1418C50.4033 77.6788 51.0166 75.6739 51.7937 74.0434L56.0449 76.7084Z" fill="black"/>
<path d="M95.8639 66.9142V71.8759C97.1891 72.1074 98.4238 72.7026 99.4303 73.5951C100.364 74.4595 101.09 75.5238 101.553 76.7084C102.174 78.212 102.476 79.8819 102.599 81.4607C102.751 83.5902 102.651 85.7301 102.302 87.8362H107.667C107.894 84.8708 107.822 82.3265 107.526 80.1418C107.195 77.6788 106.582 75.6739 105.805 74.0434C104.25 70.7836 102.04 69.0151 100.098 68.0546C97.7912 66.9142 95.8639 66.9142 95.8639 66.9142Z" fill="#6C63FF"/>
<path opacity="0.3" d="M95.8639 66.9142V71.8759C97.1891 72.1074 98.4238 72.7026 99.4303 73.5951L100.098 68.0546C97.7912 66.9142 95.8639 66.9142 95.8639 66.9142Z" fill="black"/>
<path opacity="0.3" d="M101.553 76.7084C102.174 78.212 102.476 79.882 102.599 81.4608L107.526 80.1418C107.195 77.6788 106.582 75.6739 105.805 74.0434L101.553 76.7084Z" fill="black"/>
<path opacity="0.1" d="M82.0173 59.4033H75.5802V59.8478H82.0173V59.4033Z" fill="black"/>
<path opacity="0.1" d="M92.6871 65.9093V74.8931C92.3661 74.5468 92.188 74.0919 92.1883 73.6198V67.1814C92.188 66.7096 92.3662 66.2552 92.6871 65.9093Z" fill="black"/>
<path opacity="0.1" d="M65.4831 66.5016V73.2269C65.4511 73.6521 65.2747 74.0536 64.9831 74.3648V65.3637C65.2747 65.6749 65.4511 66.0764 65.4831 66.5016Z" fill="black"/>
<path opacity="0.1" d="M90.8694 83.5444H66.7294V83.8621H90.8694V83.5444Z" fill="black"/>
<path opacity="0.1" d="M77.994 90.5185H66.1924V90.7648H77.994V90.5185Z" fill="black"/>
<path opacity="0.1" d="M90.8694 90.5185H79.0679V90.7648H90.8694V90.5185Z" fill="black"/>
<path d="M69.3562 26.3508H67.5089V42.2373H69.3562V26.3508Z" fill="#6C63FF"/>
<path d="M90.5381 26.3508H88.6909V42.2373H90.5381V26.3508Z" fill="#6C63FF"/>
<path opacity="0.1" d="M68.371 28.5676C69.5272 28.5676 70.4646 27.6302 70.4646 26.474C70.4646 25.3178 69.5272 24.3804 68.371 24.3804C67.2148 24.3804 66.2774 25.3178 66.2774 26.474C66.2774 27.6302 67.2148 28.5676 68.371 28.5676Z" fill="black"/>
<path d="M68.371 28.4444C69.5272 28.4444 70.4646 27.5071 70.4646 26.3508C70.4646 25.1946 69.5272 24.2573 68.371 24.2573C67.2148 24.2573 66.2774 25.1946 66.2774 26.3508C66.2774 27.5071 67.2148 28.4444 68.371 28.4444Z" fill="#6C63FF"/>
<path opacity="0.1" d="M89.676 28.5676C90.8323 28.5676 91.7696 27.6302 91.7696 26.474C91.7696 25.3178 90.8323 24.3804 89.676 24.3804C88.5198 24.3804 87.5825 25.3178 87.5825 26.474C87.5825 27.6302 88.5198 28.5676 89.676 28.5676Z" fill="black"/>
<path d="M89.676 28.4444C90.8323 28.4444 91.7696 27.5071 91.7696 26.3508C91.7696 25.1946 90.8323 24.2573 89.676 24.2573C88.5198 24.2573 87.5825 25.1946 87.5825 26.3508C87.5825 27.5071 88.5198 28.4444 89.676 28.4444Z" fill="#6C63FF"/>
<path d="M24.1741 75.0184C24.1741 75.0184 30.3005 87.0443 25.3086 93.6245C20.3167 100.205 25.7624 118.13 25.7624 118.13" stroke="#FC6681" stroke-width="2" stroke-miterlimit="10"/>
<path d="M25.9893 71.2745C25.9893 73.5928 24.2876 75.4722 24.2876 75.4722C24.2876 75.4722 22.5858 73.5928 22.5858 71.2745C22.5858 68.9562 24.2876 67.0768 24.2876 67.0768C24.2876 67.0768 25.9893 68.9562 25.9893 71.2745Z" fill="#FC6681"/>
<path d="M27.3508 75.0184C27.3508 75.0184 21.2244 87.0443 26.2163 93.6245C31.2081 100.205 25.7624 118.13 25.7624 118.13" stroke="#FFD037" stroke-width="2" stroke-miterlimit="10"/>
<path d="M25.5355 71.2745C25.5355 73.5928 27.2373 75.4722 27.2373 75.4722C27.2373 75.4722 28.9391 73.5928 28.9391 71.2745C28.9391 68.9562 27.2373 67.0768 27.2373 67.0768C27.2373 67.0768 25.5355 68.9562 25.5355 71.2745Z" fill="#FFD037"/>
<path d="M29.8467 75.0184C29.8467 75.0184 35.9731 87.0443 30.9812 93.6245C25.9894 100.205 31.435 118.13 31.435 118.13" stroke="#FC6681" stroke-width="2" stroke-miterlimit="10"/>
<path d="M31.6619 71.2745C31.6619 73.5928 29.9601 75.4722 29.9601 75.4722C29.9601 75.4722 28.2584 73.5928 28.2584 71.2745C28.2584 68.9562 29.9601 67.0768 29.9601 67.0768C29.9601 67.0768 31.6619 68.9562 31.6619 71.2745Z" fill="#FC6681"/>
<path d="M30.7079 80.9101C29.1006 82.5808 26.5712 82.7553 26.5712 82.7553C26.5712 82.7553 26.6478 80.2211 28.2551 78.5504C29.8624 76.8797 32.3918 76.7052 32.3918 76.7052C32.3918 76.7052 32.3152 79.2394 30.7079 80.9101Z" fill="#FC6681"/>
<path d="M30.8674 89.2062C29.2601 90.8769 26.7308 91.0514 26.7308 91.0514C26.7308 91.0514 26.8074 88.5172 28.4147 86.8465C30.022 85.1758 32.5513 85.0013 32.5513 85.0013C32.5513 85.0013 32.4747 87.5355 30.8674 89.2062Z" fill="#FC6681"/>
<path d="M22.1513 93.771C23.6712 95.5216 23.6183 98.0564 23.6183 98.0564C23.6183 98.0564 21.1011 97.753 19.5813 96.0023C18.0614 94.2517 18.1143 91.7169 18.1143 91.7169C18.1143 91.7169 20.6314 92.0204 22.1513 93.771Z" fill="#FC6681"/>
<path d="M23.5614 76.0781C25.4938 77.3588 26.1203 79.8156 26.1203 79.8156C26.1203 79.8156 23.6136 80.1959 21.6811 78.9152C19.7487 77.6344 19.1222 75.1777 19.1222 75.1777C19.1222 75.1777 21.6289 74.7974 23.5614 76.0781Z" fill="#FC6681"/>
<path d="M33.0233 75.0184C33.0233 75.0184 26.897 87.0443 31.8888 93.6245C36.8807 100.205 31.435 118.13 31.435 118.13" stroke="#FFD037" stroke-width="2" stroke-miterlimit="10"/>
<path d="M31.2081 71.2745C31.2081 73.5928 32.9099 75.4722 32.9099 75.4722C32.9099 75.4722 34.6117 73.5928 34.6117 71.2745C34.6117 68.9562 32.9099 67.0768 32.9099 67.0768C32.9099 67.0768 31.2081 68.9562 31.2081 71.2745Z" fill="#FFD037"/>
<path d="M31.6978 81.0884C30.0705 82.7397 29.9636 85.2728 29.9636 85.2728C29.9636 85.2728 32.4948 85.1286 34.1221 83.4773C35.7493 81.826 35.8563 79.2929 35.8563 79.2929C35.8563 79.2929 33.325 79.4371 31.6978 81.0884Z" fill="#FFD037"/>
<path d="M34.8886 92.5754C33.2614 94.2267 33.1544 96.7598 33.1544 96.7598C33.1544 96.7598 35.6857 96.6156 37.3129 94.9643C38.9401 93.313 39.0471 90.7799 39.0471 90.7799C39.0471 90.7799 36.5158 90.9241 34.8886 92.5754Z" fill="#FFD037"/>
<path d="M30.1942 90.0508C30.1942 90.0508 33.882 84.2379 39.0579 84.113" stroke="#FFD037" stroke-width="2" stroke-miterlimit="10"/>
<path d="M27.3224 86.5408C27.3224 86.5408 23.6345 80.7279 18.4586 80.6031" stroke="#FC6681" stroke-width="2" stroke-miterlimit="10"/>
<path d="M26.8438 94.8371C26.8438 94.8371 30.5317 89.0241 35.7075 88.8993" stroke="#FFD037" stroke-width="2" stroke-miterlimit="10"/>
<path d="M38.8891 85.0252C39.4178 85.0252 39.8464 84.5966 39.8464 84.068C39.8464 83.5393 39.4178 83.1107 38.8891 83.1107C38.3605 83.1107 37.9319 83.5393 37.9319 84.068C37.9319 84.5966 38.3605 85.0252 38.8891 85.0252Z" fill="#FFD037"/>
<path d="M18.5476 81.595C19.0763 81.595 19.5049 81.1665 19.5049 80.6378C19.5049 80.1091 19.0763 79.6805 18.5476 79.6805C18.0189 79.6805 17.5904 80.1091 17.5904 80.6378C17.5904 81.1665 18.0189 81.595 18.5476 81.595Z" fill="#FC6681"/>
<path d="M29.556 96.7515C29.556 96.7515 25.8681 90.9386 20.6922 90.8138" stroke="#FC6681" stroke-width="2" stroke-miterlimit="10"/>
<path d="M20.7812 91.8057C21.3099 91.8057 21.7384 91.3772 21.7384 90.8485C21.7384 90.3198 21.3099 89.8912 20.7812 89.8912C20.2525 89.8912 19.8239 90.3198 19.8239 90.8485C19.8239 91.3772 20.2525 91.8057 20.7812 91.8057Z" fill="#FC6681"/>
<path d="M35.7781 89.8913C36.3068 89.8913 36.7353 89.4627 36.7353 88.934C36.7353 88.4053 36.3068 87.9767 35.7781 87.9767C35.2494 87.9767 34.8208 88.4053 34.8208 88.934C34.8208 89.4627 35.2494 89.8913 35.7781 89.8913Z" fill="#FFD037"/>
<path d="M49.9407 111.148C49.9407 111.148 41.0537 109.37 38.6838 107C36.314 104.63 25.6496 100.483 24.4647 103.445C23.2798 106.408 8.46814 116.48 18.54 118.257C28.6119 120.034 42.2386 120.627 45.2009 119.442C48.1633 118.257 49.9407 111.148 49.9407 111.148Z" fill="#A8A8A8"/>
<path opacity="0.2" d="M18.54 117.157C28.6119 118.934 42.2386 119.526 45.2009 118.341C47.4569 117.439 49.0245 113.103 49.6444 111.086C49.832 111.126 49.9406 111.148 49.9406 111.148C49.9406 111.148 48.1632 118.257 45.2009 119.442C42.2386 120.627 28.6119 120.035 18.54 118.257C15.6327 117.744 14.8012 116.539 15.1144 115.014C15.363 116.009 16.376 116.775 18.54 117.157Z" fill="black"/>
<path d="M145.925 77.1417C145.925 77.1417 148.054 79.9262 144.942 84.1304C141.83 88.3345 139.264 91.8835 140.301 94.5043C140.301 94.5043 144.996 86.6966 148.818 86.5874C152.64 86.4782 150.129 81.8372 145.925 77.1417Z" fill="#FC6681"/>
<path opacity="0.1" d="M145.925 77.1417C146.11 77.4107 146.257 77.7047 146.36 78.0149C150.089 82.3963 152.075 86.4849 148.491 86.5874C145.152 86.6828 141.147 92.6532 140.187 94.161C140.219 94.2775 140.257 94.3921 140.301 94.5043C140.301 94.5043 144.996 86.6966 148.818 86.5874C152.64 86.4782 150.129 81.8372 145.925 77.1417Z" fill="black"/>
<path d="M149.883 80.6906C149.883 81.6706 149.773 82.4651 149.637 82.4651C149.502 82.4651 149.392 81.6706 149.392 80.6906C149.392 79.7106 149.529 80.1719 149.665 80.1719C149.8 80.1719 149.883 79.7106 149.883 80.6906Z" fill="#FFD037"/>
<path d="M151.241 81.8606C150.381 82.3296 149.631 82.6132 149.566 82.4941C149.501 82.375 150.146 81.8982 151.006 81.4291C151.867 80.9601 151.527 81.3015 151.592 81.4206C151.657 81.5398 152.102 81.3916 151.241 81.8606Z" fill="#FFD037"/>
<path d="M134.677 77.1417C134.677 77.1417 132.548 79.9262 135.66 84.1304C138.772 88.3345 141.338 91.8835 140.301 94.5043C140.301 94.5043 135.605 86.6966 131.783 86.5874C127.961 86.4782 130.473 81.8372 134.677 77.1417Z" fill="#FC6681"/>
<path opacity="0.1" d="M134.677 77.1417C134.491 77.4107 134.345 77.7047 134.242 78.0149C130.513 82.3963 128.526 86.4849 132.111 86.5874C135.45 86.6828 139.455 92.6532 140.414 94.161C140.383 94.2775 140.345 94.3921 140.301 94.5043C140.301 94.5043 135.605 86.6966 131.783 86.5874C127.961 86.4782 130.473 81.8372 134.677 77.1417Z" fill="black"/>
<path d="M130.719 80.6906C130.719 81.6706 130.829 82.4651 130.964 82.4651C131.1 82.4651 131.21 81.6706 131.21 80.6906C131.21 79.7106 131.073 80.1719 130.937 80.1719C130.801 80.1719 130.719 79.7106 130.719 80.6906Z" fill="#FFD037"/>
<path d="M129.36 81.8606C130.221 82.3296 130.971 82.6132 131.036 82.4941C131.101 82.375 130.456 81.8982 129.596 81.4291C128.735 80.9601 129.074 81.3015 129.009 81.4206C128.944 81.5398 128.5 81.3916 129.36 81.8606Z" fill="#FFD037"/>
<path d="M131.397 94.1398C131.397 94.1398 137.35 93.9565 139.144 92.6788C140.939 91.4012 148.302 89.8756 148.748 91.9247C149.193 93.9737 157.694 102.116 150.973 102.17C144.252 102.224 135.355 101.123 133.565 100.032C131.774 98.9413 131.397 94.1398 131.397 94.1398Z" fill="#A8A8A8"/>
<path opacity="0.2" d="M151.093 101.457C144.372 101.511 135.475 100.41 133.685 99.3189C132.321 98.4882 131.777 95.5073 131.596 94.1321C131.47 94.1375 131.397 94.1398 131.397 94.1398C131.397 94.1398 131.774 98.9413 133.565 100.032C135.355 101.123 144.252 102.224 150.973 102.17C152.913 102.154 153.583 101.464 153.547 100.442C153.277 101.059 152.537 101.445 151.093 101.457Z" fill="black"/>
</g>
<defs>
<clipPath id="clip0">
<rect width="164.094" height="120.058" fill="white"/>
</clipPath>
</defs>
</svg>
