<svg width="130" height="136" viewBox="0 0 130 136" fill="none" xmlns="http://www.w3.org/2000/svg">
<g clip-path="url(#clip0)">
<path d="M123.197 126.3C123.197 131.402 95.6188 135.539 61.5985 135.539C27.5782 135.539 0 131.402 0 126.3C0 122.687 13.8239 119.558 33.9706 118.039C42.2784 117.412 51.6653 117.06 61.5985 117.06C65.6819 117.06 69.6719 117.119 73.5307 117.233C101.84 118.067 123.197 121.809 123.197 126.3Z" fill="#3F3D56"/>
<path opacity="0.1" d="M53.6503 128.187C66.7096 128.187 77.2962 126.897 77.2962 125.306C77.2962 123.715 66.7096 122.425 53.6503 122.425C40.591 122.425 30.0044 123.715 30.0044 125.306C30.0044 126.897 40.591 128.187 53.6503 128.187Z" fill="black"/>
<path d="M53.551 127.392C65.8969 127.392 75.9053 116.717 75.9053 103.548C75.9053 90.3788 65.8969 79.7032 53.551 79.7032C41.205 79.7032 31.1967 90.3788 31.1967 103.548C31.1967 116.717 41.205 127.392 53.551 127.392Z" fill="#3F3D56"/>
<path d="M60.605 117.656H46.6956V130.373H60.605V117.656Z" fill="#36C5FC"/>
<path d="M78.7865 120.736L77.9917 125.107L83.158 125.902L86.536 123.915L86.3373 120.736H78.7865Z" fill="#575A89"/>
<path d="M52.7562 38.6706C52.7562 38.6706 52.3588 43.2409 51.3652 43.4396C50.3717 43.6383 53.551 51.5865 53.551 51.5865H58.3199L62.0953 50.5929L60.3069 46.2214C60.3069 46.2214 57.9225 43.0422 59.7108 40.459C61.4992 37.8758 52.7562 38.6706 52.7562 38.6706Z" fill="#A0616A"/>
<path opacity="0.1" d="M52.7562 38.6706C52.7562 38.6706 52.3588 43.2409 51.3652 43.4396C50.3717 43.6383 53.551 51.5865 53.551 51.5865H58.3199L62.0953 50.5929L60.3069 46.2214C60.3069 46.2214 57.9225 43.0422 59.7108 40.459C61.4992 37.8758 52.7562 38.6706 52.7562 38.6706Z" fill="black"/>
<path d="M42.8209 73.6427C42.8209 73.6427 37.6546 83.578 41.8274 85.565C46.0002 87.5521 46.9937 87.3534 46.9937 87.9495C46.9937 88.5456 46.1989 88.3469 46.5963 89.3404C46.9937 90.3339 45.8015 94.308 46.9937 96.6925C48.1859 99.0769 47.7885 100.865 47.7885 100.865C47.7885 100.865 47.7885 101.064 48.1859 101.859C48.5833 102.654 48.782 103.25 48.5833 103.647C48.3846 104.045 47.1924 106.628 48.3846 107.224C49.5769 107.82 55.7367 108.217 56.3328 107.224C56.9289 106.23 55.7367 105.634 56.3328 105.038C56.9289 104.442 57.3263 104.243 56.9289 103.846C56.5315 103.448 56.1341 98.4808 56.1341 98.4808C56.1341 98.4808 57.1276 92.7184 56.7302 91.9236C56.3328 91.1287 55.7367 90.3339 56.1341 89.7378C56.5315 89.1417 56.9289 89.3404 57.1276 88.5456C57.3263 87.7508 57.7238 85.9624 57.7238 85.9624L59.9095 85.7637L65.0758 86.7572C65.0758 86.7572 70.8383 93.1158 77.1968 95.1028C77.1968 95.1028 78.9852 96.8912 79.5813 96.8912C80.1774 96.8912 80.1774 96.8912 79.9787 97.2886C79.78 97.686 79.1839 97.686 79.5813 98.0834C79.9787 98.4808 80.5748 97.8847 80.1774 98.4808C79.78 99.0769 79.3826 99.0769 79.78 99.4743C80.1774 99.8718 79.5813 102.058 79.5813 102.256C79.5813 102.455 77.793 121.133 78.3891 121.531C78.9852 121.928 87.3308 123.12 87.9269 121.531C88.523 119.941 87.5295 117.954 87.5295 117.954C87.5295 117.954 90.5101 94.1093 89.7152 92.5197C88.9204 90.93 86.1386 83.7767 71.2357 79.2065C71.2357 79.2065 67.0629 78.4116 67.0629 77.8155C67.0629 77.2194 66.6655 73.444 65.8707 73.2453C65.0758 73.0466 60.5056 72.8479 60.5056 72.8479L54.7432 74.6362L46.795 73.2453L42.8209 73.6427Z" fill="#2F2E41"/>
<path d="M49.7756 107.025L48.782 110.602C48.782 110.602 47.9872 116.364 48.9808 117.755C49.7611 118.848 51.1545 120.186 53.7386 120.42C54.4628 120.487 55.188 120.304 55.7943 119.902C56.4005 119.501 56.8515 118.904 57.0726 118.211C57.1023 118.128 57.1208 118.042 57.1277 117.954C57.1277 117.557 56.5315 112.788 56.5315 112.788L55.538 107.82L55.3393 106.429L49.7756 107.025Z" fill="#2F2E41"/>
<path d="M78.7865 124.114C78.7865 124.114 77.793 123.12 77.5942 124.114C77.3955 125.107 76.6007 129.28 77.9917 129.479C79.3826 129.677 92.6958 131.665 94.0868 130.87C95.4777 130.075 98.0609 128.883 96.4712 128.287C94.8816 127.69 90.3114 125.902 90.3114 125.902C90.3114 125.902 87.7282 122.524 87.3308 122.325C86.9334 122.127 84.7476 122.524 83.7541 123.319C82.7606 124.114 78.7865 124.114 78.7865 124.114Z" fill="#2F2E41"/>
<path d="M57.5251 42.8434C60.9271 42.8434 63.6849 40.0856 63.6849 36.6836C63.6849 33.2816 60.9271 30.5237 57.5251 30.5237C54.1231 30.5237 51.3652 33.2816 51.3652 36.6836C51.3652 40.0856 54.1231 42.8434 57.5251 42.8434Z" fill="#A0616A"/>
<path d="M56.929 50.593L54.5445 48.0098L51.9014 42.8435C51.9014 42.8435 49.9743 42.2474 49.5769 43.2409C49.1795 44.2344 42.0261 47.4137 42.0261 47.4137C42.0261 47.4137 43.8144 64.1049 43.0196 65.6946C42.2248 67.2842 40.8339 73.6427 42.0261 74.2389C43.2183 74.835 48.7821 74.2389 50.5704 75.0337C52.3588 75.8285 57.5251 75.8285 58.916 74.835C60.3069 73.8415 60.7044 73.0466 62.0953 73.6427C63.2794 74.1502 66.0477 56.8003 66.8447 51.63C66.9118 51.1958 66.8561 50.7514 66.6837 50.3472C66.5113 49.943 66.2293 49.5951 65.8694 49.343C64.0865 48.0924 60.8754 45.9373 60.3069 46.2215C59.5121 46.6189 56.929 50.593 56.929 50.593Z" fill="#575A89"/>
<path d="M65.4733 49.7981C65.9399 49.9147 66.3596 50.1714 66.6761 50.5335C66.9926 50.8957 67.1907 51.346 67.2438 51.824L68.8512 66.2906C68.8512 66.2906 64.8771 74.8349 62.8901 69.0725C60.903 63.31 65.4733 49.7981 65.4733 49.7981Z" fill="#575A89"/>
<path d="M65.0758 67.6816L69.4473 66.4894C69.4473 66.4894 70.2422 72.0531 71.037 72.0531C71.8318 72.0531 68.2551 75.2324 66.4668 74.835C64.6784 74.4376 62.0953 73.0466 61.8966 72.0531C61.6979 71.0596 63.6849 66.8868 63.6849 66.8868L65.0758 67.6816Z" fill="#575A89"/>
<path d="M52.875 39.3409C53.2939 38.4173 53.2212 37.34 53.5674 36.3868C53.7529 35.8764 54.0538 35.4158 54.4467 35.041C54.8396 34.6662 55.3138 34.3872 55.8323 34.226C56.3509 34.0648 56.8996 34.0256 57.4358 34.1116C57.972 34.1975 58.481 34.4063 58.9232 34.7215C59.3686 35.0391 59.8152 35.4854 60.3589 35.4248C60.9445 35.3595 61.4667 34.7062 62.005 34.9456C62.6017 35.211 62.4405 36.2803 63.045 36.5273C63.3632 36.6573 63.7392 36.4571 63.9227 36.1665C64.0832 35.8611 64.1707 35.5226 64.1782 35.1777C64.2617 34.3302 64.337 33.4333 63.9695 32.6651C63.8149 32.4047 63.6802 32.133 63.5665 31.8524C63.5021 31.5903 63.4763 31.3203 63.4898 31.0507C63.4865 30.0546 63.4138 29.0156 62.9125 28.1548C62.3562 27.1996 61.3279 26.5888 60.2551 26.3223C59.1824 26.0557 58.0584 26.0966 56.957 26.1899C55.1362 26.344 53.2374 26.6744 51.8029 27.8063C51.6079 27.9488 51.4401 28.1251 51.3074 28.3268C51.1815 28.5665 51.0926 28.8239 51.0435 29.0902C50.7334 30.3532 50.2684 31.573 49.659 32.7219C49.3659 33.209 49.1264 33.7264 48.9446 34.265C48.7925 34.8123 48.8028 35.436 49.1212 35.9064C49.3805 36.2894 49.7949 36.4935 50.1206 36.8066C50.4432 37.1169 50.5942 37.7136 50.9517 37.9486C51.2637 38.1536 51.6375 38.0089 51.9557 38.2262C52.3643 38.5053 52.3938 39.1173 52.875 39.3409Z" fill="#2F2E41"/>
<path d="M57.9225 53.5735L58.5186 52.3813C58.5186 52.3813 67.2616 54.9645 69.05 57.3489C69.05 57.3489 73.4215 54.567 75.8059 54.9645L78.1904 55.3619L70.8383 61.9191L61.4992 61.1243L57.9225 53.5735Z" fill="#F2F2F2"/>
<path d="M57.525 52.3813L49.3781 63.7075L61.1017 69.4699C61.1017 69.4699 62.1977 70.066 63.0407 69.4699L70.8383 65.8932L78.1904 55.3619L70.8383 59.1373C70.8383 59.1373 70.0435 57.5476 68.4538 58.3424L57.525 52.3813Z" fill="#36C5FC"/>
<path d="M70.0435 72.4505L71.6331 68.2777C71.6331 68.2777 75.2098 63.7075 73.2228 61.5218C71.2357 59.336 69.05 67.8803 69.05 67.8803L70.0435 72.4505Z" fill="#A0616A"/>
<path d="M51.7025 71.7846L55.1712 68.9726C55.1712 68.9726 60.5581 66.8136 59.9358 63.9259C59.3136 61.0383 53.136 67.3328 53.136 67.3328L51.7025 71.7846Z" fill="#A0616A"/>
<path opacity="0.1" d="M43.119 51.6858H42.9203C42.9203 51.6858 39.8403 48.0098 39.2442 52.9774C38.6481 57.945 36.6611 74.4375 41.8274 75.0337C46.9937 75.6298 50.6698 72.5498 50.6698 72.5498C50.6698 72.5498 54.4452 66.7874 53.0542 66.7874C52.3812 66.7874 50.5509 66.4851 48.8814 66.5887C47.1005 66.6992 45.5002 67.2009 45.6028 66.688C45.8015 65.6945 48.6827 53.0768 43.119 51.6858Z" fill="black"/>
<path d="M42.8209 47.811L42.0261 47.4136C42.0261 47.4136 38.8468 48.0097 38.2507 52.9774C37.6546 57.945 35.6675 74.4375 40.8339 75.0336C46.0002 75.6297 52.9549 74.2388 52.9549 74.2388C52.9549 74.2388 54.3458 66.688 52.9549 66.688C51.5639 66.688 44.4105 67.6815 44.6093 66.688C44.808 65.6945 48.3846 49.202 42.8209 47.811Z" fill="#575A89"/>
<path d="M67.1622 70.1655L69.3534 66.8072L70.7389 72.3513L67.1622 73.9409V70.1655Z" fill="#575A89"/>
<path d="M22.1503 22.2775C25.1133 22.2775 27.5153 19.8755 27.5153 16.9125C27.5153 13.9495 25.1133 11.5475 22.1503 11.5475C19.1872 11.5475 16.7852 13.9495 16.7852 16.9125C16.7852 19.8755 19.1872 22.2775 22.1503 22.2775Z" fill="#F2F2F2"/>
<path d="M28.5088 56.8521H15.7917V69.5692H28.5088V56.8521Z" fill="#F2F2F2"/>
<path d="M73.9182 0L77.137 5.57506L80.3557 11.1501H73.9182H67.4807L70.6994 5.57506L73.9182 0Z" fill="#F2F2F2"/>
<path d="M130 33.4279C129.923 35.8064 129.344 37.7129 128.262 39.1473C127.181 40.5819 125.896 41.2992 124.407 41.2993C123.195 41.2993 122.132 40.5973 121.219 39.1933C120.306 37.7894 119.85 35.6297 119.85 32.7144C119.85 32.07 119.865 31.4562 119.896 30.8731C119.927 30.2902 119.965 29.7378 120.011 29.216L120.817 21.6437H115.5C114.579 31.2184 113.824 36.9148 113.233 38.7331C112.642 40.5513 111.641 41.4604 110.229 41.4605C109.592 41.4448 108.984 41.1901 108.526 40.747C108.26 40.5116 108.05 40.2202 107.911 39.8939C107.772 39.5675 107.707 39.2142 107.721 38.8596C107.721 38.1541 108.277 37.1682 109.389 35.9021C110.502 34.6362 111.119 33.4816 111.242 32.4382L112.623 21.6437H110.39C109.761 21.6475 109.142 21.8013 108.584 22.0925C108.07 22.3284 107.623 22.6883 107.283 23.1397L106.294 24.6128H105.488C106.24 22.2806 107.164 20.5275 108.261 19.3536C109.358 18.1798 110.62 17.5929 112.048 17.5929H129.632V21.6437H123.694C123.509 23.485 123.368 25.3263 123.268 27.1675C123.168 29.0088 123.118 30.8578 123.118 32.7144C123.118 33.9727 123.41 34.9931 123.993 35.7755C124.576 36.5581 125.305 36.9493 126.179 36.9493C126.716 36.9493 127.28 36.7306 127.871 36.2933C128.152 36.0965 128.386 35.8414 128.559 35.5455C128.732 35.2495 128.839 34.9197 128.872 34.5787C128.918 34.2413 128.953 33.9766 128.976 33.7846C128.999 33.5929 129.01 33.474 129.01 33.4279L130 33.4279Z" fill="#6C63FF"/>
<path opacity="0.1" d="M130 33.4279C129.923 35.8064 129.344 37.7129 128.262 39.1473C127.181 40.5819 125.896 41.2992 124.407 41.2993C123.195 41.2993 122.132 40.5973 121.219 39.1933C120.306 37.7894 119.85 35.6297 119.85 32.7144C119.85 32.07 119.865 31.4562 119.896 30.8731C119.927 30.2902 119.965 29.7378 120.011 29.216L120.817 21.6437H115.5C114.579 31.2184 113.824 36.9148 113.233 38.7331C112.642 40.5513 111.641 41.4604 110.229 41.4605C109.592 41.4448 108.984 41.1901 108.526 40.747C108.26 40.5116 108.05 40.2202 107.911 39.8939C107.772 39.5675 107.707 39.2142 107.721 38.8596C107.721 38.1541 108.277 37.1682 109.389 35.9021C110.502 34.6362 111.119 33.4816 111.242 32.4382L112.623 21.6437H110.39C109.761 21.6475 109.142 21.8013 108.584 22.0925C108.07 22.3284 107.623 22.6883 107.283 23.1397L106.294 24.6128H105.488C106.24 22.2806 107.164 20.5275 108.261 19.3536C109.358 18.1798 110.62 17.5929 112.048 17.5929H129.632V21.6437H123.694C123.509 23.485 123.368 25.3263 123.268 27.1675C123.168 29.0088 123.118 30.8578 123.118 32.7144C123.118 33.9727 123.41 34.9931 123.993 35.7755C124.576 36.5581 125.305 36.9493 126.179 36.9493C126.716 36.9493 127.28 36.7306 127.871 36.2933C128.152 36.0965 128.386 35.8414 128.559 35.5455C128.732 35.2495 128.839 34.9197 128.872 34.5787C128.918 34.2413 128.953 33.9766 128.976 33.7846C128.999 33.5929 129.01 33.474 129.01 33.4279L130 33.4279Z" fill="black"/>
<path d="M130 32.7088C129.923 35.0874 129.344 36.9939 128.262 38.4283C127.181 39.8628 125.896 40.5802 124.407 40.5803C123.195 40.5803 122.132 39.8783 121.219 38.4743C120.306 37.0703 119.85 34.9107 119.85 31.9953C119.85 31.3509 119.865 30.7371 119.896 30.154C119.927 29.5711 119.965 29.0187 120.011 28.4969L120.817 20.9247H115.5C114.579 30.4993 113.824 36.1957 113.233 38.014C112.642 39.8322 111.641 40.7414 110.229 40.7414C109.592 40.7257 108.984 40.4711 108.526 40.0279C108.26 39.7926 108.05 39.5012 107.911 39.1748C107.772 38.8484 107.707 38.4952 107.721 38.1406C107.721 37.435 108.277 36.4492 109.389 35.183C110.502 33.9171 111.119 32.7625 111.242 31.7192L112.623 20.9247H110.39C109.761 20.9284 109.142 21.0823 108.584 21.3734C108.07 21.6093 107.623 21.9692 107.283 22.4207L106.294 23.8937H105.488C106.24 21.5615 107.164 19.8085 108.261 18.6346C109.358 17.4607 110.62 16.8738 112.048 16.8738H129.632V20.9247H123.694C123.509 22.7659 123.368 24.6072 123.268 26.4485C123.168 28.2898 123.118 30.1387 123.118 31.9953C123.118 33.2537 123.41 34.274 123.993 35.0565C124.576 35.839 125.305 36.2303 126.179 36.2303C126.716 36.2303 127.28 36.0116 127.871 35.5743C128.152 35.3775 128.386 35.1224 128.559 34.8264C128.732 34.5305 128.839 34.2007 128.872 33.8596C128.918 33.5223 128.953 33.2576 128.976 33.0656C128.999 32.8739 129.01 32.755 129.01 32.7088H130Z" fill="#36C5FC"/>
</g>
<defs>
<clipPath id="clip0">
<rect width="130" height="135.539" fill="white"/>
</clipPath>
</defs>
</svg>
