<svg width="174" height="118" viewBox="0 0 174 118" fill="none" xmlns="http://www.w3.org/2000/svg">
<g clip-path="url(#clip0)">
<path d="M145.601 0H0V78.3261H145.601V0Z" fill="#3F3D56"/>
<path d="M27.6052 11.0427H26.3212V13.0971H27.6052V11.0427Z" fill="#FFB149"/>
<path d="M31.9707 10.5291H30.6867V12.5835H31.9707V10.5291Z" fill="#FFB149"/>
<path d="M34.2818 10.5291H32.9978V12.5835H34.2818V10.5291Z" fill="#FFB149"/>
<path d="M34.2818 16.6924H32.9978V18.7469H34.2818V16.6924Z" fill="#FFB149"/>
<path d="M36.8497 13.6108H35.5658V15.6652H36.8497V13.6108Z" fill="#FFB149"/>
<path d="M36.8497 16.9492H35.5658V19.0037H36.8497V16.9492Z" fill="#FFB149"/>
<path d="M34.2818 23.3694H32.9978V25.4239H34.2818V23.3694Z" fill="#FFB149"/>
<path d="M36.8497 26.7079H35.5658V28.7624H36.8497V26.7079Z" fill="#FFB149"/>
<path d="M34.2818 39.2914H32.9978V41.3459H34.2818V39.2914Z" fill="#FFB149"/>
<path d="M31.9707 26.7079H30.6867V28.7624H31.9707V26.7079Z" fill="#FFB149"/>
<path d="M27.6052 14.3812H26.3212V16.4356H27.6052V14.3812Z" fill="#FFB149"/>
<path d="M27.6052 46.482H26.3212V48.5365H27.6052V46.482Z" fill="#FFB149"/>
<path d="M27.6052 53.159H26.3212V55.2135H27.6052V53.159Z" fill="#FFB149"/>
<path d="M27.6052 56.4975H26.3212V58.552H27.6052V56.4975Z" fill="#FFB149"/>
<path d="M27.6052 17.9765H25.8076V18.2333H27.6052V17.9765Z" fill="#FFB149"/>
<path d="M34.5386 21.0582H32.7411V21.315H34.5386V21.0582Z" fill="#FFB149"/>
<path d="M27.6052 34.4121H25.8076V34.6689H27.6052V34.4121Z" fill="#FFB149"/>
<path d="M27.6052 37.237H25.8076V37.4938H27.6052V37.237Z" fill="#FFB149"/>
<path d="M34.5386 53.6726H32.7411V53.9294H34.5386V53.6726Z" fill="#FFB149"/>
<path d="M32.4843 59.836H30.6867V60.0928H32.4843V59.836Z" fill="#FFB149"/>
<path d="M26.3212 20.2878V20.8014H26.8347V21.8286H26.3212V22.3422H27.6052V20.2878H26.3212Z" fill="#FFB149"/>
<path d="M30.6868 16.6925V17.206H31.2003V18.2333H30.6868V18.7468H31.9707V16.6925H30.6868Z" fill="#FFB149"/>
<path d="M35.5658 20.0309V20.5446H36.0793V21.5718H35.5658V22.0854H36.8498V20.0309H35.5658Z" fill="#FFB149"/>
<path d="M35.5658 30.0465V30.56H36.0793V31.5873H35.5658V32.1008H36.8498V30.0465H35.5658Z" fill="#FFB149"/>
<path d="M35.5658 33.3848V33.8986H36.0793V34.9258H35.5658V35.4394H36.8498V33.3848H35.5658Z" fill="#FFB149"/>
<path d="M35.5658 23.1126V23.6262H36.0793V24.6534H35.5658V25.1671H36.8498V23.1126H35.5658Z" fill="#FFB149"/>
<path d="M32.9978 13.6107V14.1244H33.5115V15.1515H32.9978V15.6652H34.2819V13.6107H32.9978Z" fill="#FFB149"/>
<path d="M34.2818 30.0464H32.9978V32.1009H34.2818V30.0464Z" fill="#FFB149"/>
<path d="M34.2818 36.2098H32.9978V38.2642H34.2818V36.2098Z" fill="#FFB149"/>
<path d="M32.9978 33.1281V33.6416H33.5115V34.6689H32.9978V35.1826H34.2819V33.1281H32.9978Z" fill="#FFB149"/>
<path d="M30.6868 20.0309V20.5446H31.2003V21.5718H30.6868V22.0854H31.9707V20.0309H30.6868Z" fill="#FFB149"/>
<path d="M30.6868 23.3694V23.8831H31.2003V24.9102H30.6868V25.4239H31.9707V23.3694H30.6868Z" fill="#FFB149"/>
<path d="M31.9707 33.3849H30.6867V35.4393H31.9707V33.3849Z" fill="#FFB149"/>
<path d="M30.6868 30.0465V30.56H31.2003V31.5873H30.6868V32.1008H31.9707V30.0465H30.6868Z" fill="#FFB149"/>
<path d="M31.9707 40.0619H30.6867V42.1163H31.9707V40.0619Z" fill="#FFB149"/>
<path d="M30.6868 36.7234V37.2369H31.2003V38.2642H30.6868V38.7779H31.9707V36.7234H30.6868Z" fill="#FFB149"/>
<path d="M31.9707 46.7388H30.6867V48.7933H31.9707V46.7388Z" fill="#FFB149"/>
<path d="M34.2818 46.2252H32.9978V48.2797H34.2818V46.2252Z" fill="#FFB149"/>
<path d="M30.6868 43.4003V43.914H31.2003V44.9412H30.6868V45.4548H31.9707V43.4003H30.6868Z" fill="#FFB149"/>
<path d="M35.5658 43.4003V43.914H36.0793V44.9412H35.5658V45.4548H36.8498V43.4003H35.5658Z" fill="#FFB149"/>
<path d="M49.9461 13.6108H48.6622V15.6652H49.9461V13.6108Z" fill="#FFB149"/>
<path d="M49.9461 16.9492H48.6622V19.0037H49.9461V16.9492Z" fill="#FFB149"/>
<path d="M49.9461 26.7079H48.6622V28.7624H49.9461V26.7079Z" fill="#FFB149"/>
<path d="M48.6621 20.0309V20.5446H49.1758V21.5718H48.6621V22.0854H49.9461V20.0309H48.6621Z" fill="#FFB149"/>
<path d="M48.6621 30.0465V30.56H49.1758V31.5873H48.6621V32.1008H49.9461V30.0465H48.6621Z" fill="#FFB149"/>
<path d="M48.6621 33.3848V33.8986H49.1758V34.9258H48.6621V35.4394H49.9461V33.3848H48.6621Z" fill="#FFB149"/>
<path d="M48.6621 23.1126V23.6262H49.1758V24.6534H48.6621V25.1671H49.9461V23.1126H48.6621Z" fill="#FFB149"/>
<path d="M48.6621 43.4003V43.914H49.1758V44.9412H48.6621V45.4548H49.9461V43.4003H48.6621Z" fill="#FFB149"/>
<path d="M31.9707 53.4158H30.6867V55.4703H31.9707V53.4158Z" fill="#FFB149"/>
<path d="M34.2818 49.5637H32.9978V51.6182H34.2818V49.5637Z" fill="#FFB149"/>
<path d="M31.9707 62.1473H30.6867V64.2017H31.9707V62.1473Z" fill="#FFB149"/>
<path d="M34.2818 55.9839H32.9978V58.0383H34.2818V55.9839Z" fill="#FFB149"/>
<path d="M30.6868 50.0773V50.5909H31.2003V51.6181H30.6868V52.1319H31.9707V50.0773H30.6868Z" fill="#FFB149"/>
<path d="M30.6868 65.7426V66.2561H31.2003V67.2834H30.6868V67.7969H31.9707V65.7426H30.6868Z" fill="#FFB149"/>
<path d="M46.0943 10.5291H44.8103V12.5835H46.0943V10.5291Z" fill="#FFB149"/>
<path d="M46.0943 26.7079H44.8103V28.7624H46.0943V26.7079Z" fill="#FFB149"/>
<path d="M46.6078 59.836H44.8103V60.0928H46.6078V59.836Z" fill="#FFB149"/>
<path d="M44.8103 16.6925V17.206H45.324V18.2333H44.8103V18.7468H46.0942V16.6925H44.8103Z" fill="#FFB149"/>
<path d="M44.8103 20.0309V20.5446H45.324V21.5718H44.8103V22.0854H46.0942V20.0309H44.8103Z" fill="#FFB149"/>
<path d="M44.8103 23.3694V23.8831H45.324V24.9102H44.8103V25.4239H46.0942V23.3694H44.8103Z" fill="#FFB149"/>
<path d="M46.0943 33.3849H44.8103V35.4393H46.0943V33.3849Z" fill="#FFB149"/>
<path d="M44.8103 30.0465V30.56H45.324V31.5873H44.8103V32.1008H46.0942V30.0465H44.8103Z" fill="#FFB149"/>
<path d="M46.0943 40.0619H44.8103V42.1163H46.0943V40.0619Z" fill="#FFB149"/>
<path d="M44.8103 36.7234V37.2369H45.324V38.2642H44.8103V38.7779H46.0942V36.7234H44.8103Z" fill="#FFB149"/>
<path d="M46.0943 46.7388H44.8103V48.7933H46.0943V46.7388Z" fill="#FFB149"/>
<path d="M44.8103 43.4003V43.914H45.324V44.9412H44.8103V45.4548H46.0942V43.4003H44.8103Z" fill="#FFB149"/>
<path d="M46.0943 53.4158H44.8103V55.4703H46.0943V53.4158Z" fill="#FFB149"/>
<path d="M46.0943 62.1473H44.8103V64.2017H46.0943V62.1473Z" fill="#FFB149"/>
<path d="M44.8103 50.0773V50.5909H45.324V51.6181H44.8103V52.1319H46.0942V50.0773H44.8103Z" fill="#FFB149"/>
<path d="M44.8103 65.7426V66.2561H45.324V67.2834H44.8103V67.7969H46.0942V65.7426H44.8103Z" fill="#FFB149"/>
<path d="M52.2573 10.5291H50.9733V12.5835H52.2573V10.5291Z" fill="#FFB149"/>
<path d="M52.2573 26.7079H50.9733V28.7624H52.2573V26.7079Z" fill="#FFB149"/>
<path d="M52.7709 59.836H50.9733V60.0928H52.7709V59.836Z" fill="#FFB149"/>
<path d="M50.9733 16.6925V17.206H51.487V18.2333H50.9733V18.7468H52.2573V16.6925H50.9733Z" fill="#FFB149"/>
<path d="M50.9733 20.0309V20.5446H51.487V21.5718H50.9733V22.0854H52.2573V20.0309H50.9733Z" fill="#FFB149"/>
<path d="M50.9733 23.3694V23.8831H51.487V24.9102H50.9733V25.4239H52.2573V23.3694H50.9733Z" fill="#FFB149"/>
<path d="M52.2573 33.3849H50.9733V35.4393H52.2573V33.3849Z" fill="#FFB149"/>
<path d="M50.9733 30.0465V30.56H51.487V31.5873H50.9733V32.1008H52.2573V30.0465H50.9733Z" fill="#FFB149"/>
<path d="M52.2573 40.0619H50.9733V42.1163H52.2573V40.0619Z" fill="#FFB149"/>
<path d="M50.9733 36.7234V37.2369H51.487V38.2642H50.9733V38.7779H52.2573V36.7234H50.9733Z" fill="#FFB149"/>
<path d="M52.2573 46.7388H50.9733V48.7933H52.2573V46.7388Z" fill="#FFB149"/>
<path d="M50.9733 43.4003V43.914H51.487V44.9412H50.9733V45.4548H52.2573V43.4003H50.9733Z" fill="#FFB149"/>
<path d="M52.2573 53.4158H50.9733V55.4703H52.2573V53.4158Z" fill="#FFB149"/>
<path d="M52.2573 62.1473H50.9733V64.2017H52.2573V62.1473Z" fill="#FFB149"/>
<path d="M50.9733 50.0773V50.5909H51.487V51.6181H50.9733V52.1319H52.2573V50.0773H50.9733Z" fill="#FFB149"/>
<path d="M50.9733 65.7426V66.2561H51.487V67.2834H50.9733V67.7969H52.2573V65.7426H50.9733Z" fill="#FFB149"/>
<path d="M32.9978 62.1473V62.6608H33.5115V63.6881H32.9978V64.2016H34.2819V62.1473H32.9978Z" fill="#FFB149"/>
<path d="M32.9978 65.4858V65.9994H33.5115V67.0266H32.9978V67.5402H34.2819V65.4858H32.9978Z" fill="#FFB149"/>
<path d="M26.3212 26.7079V27.2215H26.8347V28.2487H26.3212V28.7625H27.6052V26.7079H26.3212Z" fill="#FFB149"/>
<path d="M26.3212 39.8051V40.3187H26.8347V41.3459H26.3212V41.8595H27.6052V39.8051H26.3212Z" fill="#FFB149"/>
<path d="M26.3212 43.1435V43.6572H26.8347V44.6845H26.3212V45.198H27.6052V43.1435H26.3212Z" fill="#FFB149"/>
<path d="M26.3212 49.8206V50.3341H26.8347V51.3614H26.3212V51.8749H27.6052V49.8206H26.3212Z" fill="#FFB149"/>
<path d="M26.3212 59.3223V59.836H26.8347V60.8633H26.3212V61.3768H27.6052V59.3223H26.3212Z" fill="#FFB149"/>
<path d="M26.3212 62.1473V62.6608H26.8347V63.6881H26.3212V64.2016H27.6052V62.1473H26.3212Z" fill="#FFB149"/>
<path d="M40.9584 11.0427H39.6744V13.0971H40.9584V11.0427Z" fill="#FFB149"/>
<path d="M40.9584 14.3812H39.6744V16.4356H40.9584V14.3812Z" fill="#FFB149"/>
<path d="M40.9584 17.9765H39.1609V18.2333H40.9584V17.9765Z" fill="#FFB149"/>
<path d="M40.9584 34.4121H39.1609V34.6689H40.9584V34.4121Z" fill="#FFB149"/>
<path d="M40.9584 37.237H39.1609V37.4938H40.9584V37.237Z" fill="#FFB149"/>
<path d="M39.6745 20.2878V20.8014H40.188V21.8286H39.6745V22.3422H40.9584V20.2878H39.6745Z" fill="#FFB149"/>
<path d="M39.6745 26.7079V27.2215H40.188V28.2487H39.6745V28.7625H40.9584V26.7079H39.6745Z" fill="#FFB149"/>
<path d="M39.6745 39.8051V40.3187H40.188V41.3459H39.6745V41.8595H40.9584V39.8051H39.6745Z" fill="#FFB149"/>
<path d="M55.5956 33.3849H54.3116V35.4393H55.5956V33.3849Z" fill="#FFB149"/>
<path d="M55.5956 36.7234H54.3116V38.7778H55.5956V36.7234Z" fill="#FFB149"/>
<path d="M55.5956 40.3187H53.798V40.5755H55.5956V40.3187Z" fill="#FFB149"/>
<path d="M55.5956 56.7543H53.798V57.0111H55.5956V56.7543Z" fill="#FFB149"/>
<path d="M55.5956 59.5792H53.798V59.836H55.5956V59.5792Z" fill="#FFB149"/>
<path d="M54.3116 42.63V43.1435H54.8252V44.1708H54.3116V44.6845H55.5956V42.63H54.3116Z" fill="#FFB149"/>
<path d="M54.3116 49.0501V49.5638H54.8252V50.5909H54.3116V51.1046H55.5956V49.0501H54.3116Z" fill="#FFB149"/>
<path d="M54.3116 62.1473V62.6608H54.8252V63.6881H54.3116V64.2016H55.5956V62.1473H54.3116Z" fill="#FFB149"/>
<path d="M59.7043 11.0427H58.4203V13.0971H59.7043V11.0427Z" fill="#FFB149"/>
<path d="M64.0697 10.5291H62.7858V12.5835H64.0697V10.5291Z" fill="#FFB149"/>
<path d="M66.3809 10.5291H65.0969V12.5835H66.3809V10.5291Z" fill="#FFB149"/>
<path d="M66.3809 16.6924H65.0969V18.7469H66.3809V16.6924Z" fill="#FFB149"/>
<path d="M68.9488 13.6108H67.6648V15.6652H68.9488V13.6108Z" fill="#FFB149"/>
<path d="M68.9488 16.9492H67.6648V19.0037H68.9488V16.9492Z" fill="#FFB149"/>
<path d="M66.3809 23.3694H65.0969V25.4239H66.3809V23.3694Z" fill="#FFB149"/>
<path d="M68.9488 26.7079H67.6648V28.7624H68.9488V26.7079Z" fill="#FFB149"/>
<path d="M66.3809 39.2914H65.0969V41.3459H66.3809V39.2914Z" fill="#FFB149"/>
<path d="M64.0697 26.7079H62.7858V28.7624H64.0697V26.7079Z" fill="#FFB149"/>
<path d="M59.7043 14.3812H58.4203V16.4356H59.7043V14.3812Z" fill="#FFB149"/>
<path d="M59.7043 46.482H58.4203V48.5365H59.7043V46.482Z" fill="#FFB149"/>
<path d="M59.7043 53.159H58.4203V55.2135H59.7043V53.159Z" fill="#FFB149"/>
<path d="M59.7043 56.4975H58.4203V58.552H59.7043V56.4975Z" fill="#FFB149"/>
<path d="M59.7043 17.9765H57.9067V18.2333H59.7043V17.9765Z" fill="#FFB149"/>
<path d="M66.6377 21.0582H64.8401V21.315H66.6377V21.0582Z" fill="#FFB149"/>
<path d="M59.7043 34.4121H57.9067V34.6689H59.7043V34.4121Z" fill="#FFB149"/>
<path d="M59.7043 37.237H57.9067V37.4938H59.7043V37.237Z" fill="#FFB149"/>
<path d="M66.6377 53.6726H64.8401V53.9294H66.6377V53.6726Z" fill="#FFB149"/>
<path d="M64.5833 59.836H62.7858V60.0928H64.5833V59.836Z" fill="#FFB149"/>
<path d="M58.4203 20.2878V20.8014H58.9339V21.8286H58.4203V22.3422H59.7042V20.2878H58.4203Z" fill="#FFB149"/>
<path d="M62.7858 16.6925V17.206H63.2993V18.2333H62.7858V18.7468H64.0698V16.6925H62.7858Z" fill="#FFB149"/>
<path d="M67.6649 20.0309V20.5446H68.1784V21.5718H67.6649V22.0854H68.9488V20.0309H67.6649Z" fill="#FFB149"/>
<path d="M67.6649 30.0465V30.56H68.1784V31.5873H67.6649V32.1008H68.9488V30.0465H67.6649Z" fill="#FFB149"/>
<path d="M67.6649 33.3848V33.8986H68.1784V34.9258H67.6649V35.4394H68.9488V33.3848H67.6649Z" fill="#FFB149"/>
<path d="M67.6649 23.1126V23.6262H68.1784V24.6534H67.6649V25.1671H68.9488V23.1126H67.6649Z" fill="#FFB149"/>
<path d="M65.097 13.6107V14.1244H65.6105V15.1515H65.097V15.6652H66.3809V13.6107H65.097Z" fill="#FFB149"/>
<path d="M66.3809 30.0464H65.0969V32.1009H66.3809V30.0464Z" fill="#FFB149"/>
<path d="M66.3809 36.2098H65.0969V38.2642H66.3809V36.2098Z" fill="#FFB149"/>
<path d="M65.097 33.1281V33.6416H65.6105V34.6689H65.097V35.1826H66.3809V33.1281H65.097Z" fill="#FFB149"/>
<path d="M62.7858 20.0309V20.5446H63.2993V21.5718H62.7858V22.0854H64.0698V20.0309H62.7858Z" fill="#FFB149"/>
<path d="M62.7858 23.3694V23.8831H63.2993V24.9102H62.7858V25.4239H64.0698V23.3694H62.7858Z" fill="#FFB149"/>
<path d="M64.0697 33.3849H62.7858V35.4393H64.0697V33.3849Z" fill="#FFB149"/>
<path d="M62.7858 30.0465V30.56H63.2993V31.5873H62.7858V32.1008H64.0698V30.0465H62.7858Z" fill="#FFB149"/>
<path d="M64.0697 40.0619H62.7858V42.1163H64.0697V40.0619Z" fill="#FFB149"/>
<path d="M62.7858 36.7234V37.2369H63.2993V38.2642H62.7858V38.7779H64.0698V36.7234H62.7858Z" fill="#FFB149"/>
<path d="M64.0697 46.7388H62.7858V48.7933H64.0697V46.7388Z" fill="#FFB149"/>
<path d="M66.3809 46.2252H65.0969V48.2797H66.3809V46.2252Z" fill="#FFB149"/>
<path d="M62.7858 43.4003V43.914H63.2993V44.9412H62.7858V45.4548H64.0698V43.4003H62.7858Z" fill="#FFB149"/>
<path d="M67.6649 43.4003V43.914H68.1784V44.9412H67.6649V45.4548H68.9488V43.4003H67.6649Z" fill="#FFB149"/>
<path d="M82.0452 13.6108H80.7613V15.6652H82.0452V13.6108Z" fill="#FFB149"/>
<path d="M82.0452 16.9492H80.7613V19.0037H82.0452V16.9492Z" fill="#FFB149"/>
<path d="M82.0452 26.7079H80.7613V28.7624H82.0452V26.7079Z" fill="#FFB149"/>
<path d="M80.7614 20.0309V20.5446H81.2749V21.5718H80.7614V22.0854H82.0453V20.0309H80.7614Z" fill="#FFB149"/>
<path d="M80.7614 30.0465V30.56H81.2749V31.5873H80.7614V32.1008H82.0453V30.0465H80.7614Z" fill="#FFB149"/>
<path d="M80.7614 33.3848V33.8986H81.2749V34.9258H80.7614V35.4394H82.0453V33.3848H80.7614Z" fill="#FFB149"/>
<path d="M80.7614 23.1126V23.6262H81.2749V24.6534H80.7614V25.1671H82.0453V23.1126H80.7614Z" fill="#FFB149"/>
<path d="M80.7614 43.4003V43.914H81.2749V44.9412H80.7614V45.4548H82.0453V43.4003H80.7614Z" fill="#FFB149"/>
<path d="M64.0697 53.4158H62.7858V55.4703H64.0697V53.4158Z" fill="#FFB149"/>
<path d="M66.3809 49.5637H65.0969V51.6182H66.3809V49.5637Z" fill="#FFB149"/>
<path d="M64.0697 62.1473H62.7858V64.2017H64.0697V62.1473Z" fill="#FFB149"/>
<path d="M66.3809 55.9839H65.0969V58.0383H66.3809V55.9839Z" fill="#FFB149"/>
<path d="M62.7858 50.0773V50.5909H63.2993V51.6181H62.7858V52.1319H64.0698V50.0773H62.7858Z" fill="#FFB149"/>
<path d="M62.7858 65.7426V66.2561H63.2993V67.2834H62.7858V67.7969H64.0698V65.7426H62.7858Z" fill="#FFB149"/>
<path d="M78.1933 10.5291H76.9094V12.5835H78.1933V10.5291Z" fill="#FFB149"/>
<path d="M78.1933 26.7079H76.9094V28.7624H78.1933V26.7079Z" fill="#FFB149"/>
<path d="M78.7069 59.836H76.9094V60.0928H78.7069V59.836Z" fill="#FFB149"/>
<path d="M76.9093 16.6925V17.206H77.423V18.2333H76.9093V18.7468H78.1933V16.6925H76.9093Z" fill="#FFB149"/>
<path d="M76.9093 20.0309V20.5446H77.423V21.5718H76.9093V22.0854H78.1933V20.0309H76.9093Z" fill="#FFB149"/>
<path d="M76.9093 23.3694V23.8831H77.423V24.9102H76.9093V25.4239H78.1933V23.3694H76.9093Z" fill="#FFB149"/>
<path d="M78.1933 33.3849H76.9094V35.4393H78.1933V33.3849Z" fill="#FFB149"/>
<path d="M76.9093 30.0465V30.56H77.423V31.5873H76.9093V32.1008H78.1933V30.0465H76.9093Z" fill="#FFB149"/>
<path d="M78.1933 40.0619H76.9094V42.1163H78.1933V40.0619Z" fill="#FFB149"/>
<path d="M76.9093 36.7234V37.2369H77.423V38.2642H76.9093V38.7779H78.1933V36.7234H76.9093Z" fill="#FFB149"/>
<path d="M78.1933 46.7388H76.9094V48.7933H78.1933V46.7388Z" fill="#FFB149"/>
<path d="M76.9093 43.4003V43.914H77.423V44.9412H76.9093V45.4548H78.1933V43.4003H76.9093Z" fill="#FFB149"/>
<path d="M78.1933 53.4158H76.9094V55.4703H78.1933V53.4158Z" fill="#FFB149"/>
<path d="M78.1933 62.1473H76.9094V64.2017H78.1933V62.1473Z" fill="#FFB149"/>
<path d="M76.9093 50.0773V50.5909H77.423V51.6181H76.9093V52.1319H78.1933V50.0773H76.9093Z" fill="#FFB149"/>
<path d="M76.9093 65.7426V66.2561H77.423V67.2834H76.9093V67.7969H78.1933V65.7426H76.9093Z" fill="#FFB149"/>
<path d="M84.3564 10.5291H83.0724V12.5835H84.3564V10.5291Z" fill="#FFB149"/>
<path d="M84.3564 26.7079H83.0724V28.7624H84.3564V26.7079Z" fill="#FFB149"/>
<path d="M84.8699 59.836H83.0724V60.0928H84.8699V59.836Z" fill="#FFB149"/>
<path d="M83.0723 16.6925V17.206H83.586V18.2333H83.0723V18.7468H84.3563V16.6925H83.0723Z" fill="#FFB149"/>
<path d="M83.0723 20.0309V20.5446H83.586V21.5718H83.0723V22.0854H84.3563V20.0309H83.0723Z" fill="#FFB149"/>
<path d="M83.0723 23.3694V23.8831H83.586V24.9102H83.0723V25.4239H84.3563V23.3694H83.0723Z" fill="#FFB149"/>
<path d="M84.3564 33.3849H83.0724V35.4393H84.3564V33.3849Z" fill="#FFB149"/>
<path d="M83.0723 30.0465V30.56H83.586V31.5873H83.0723V32.1008H84.3563V30.0465H83.0723Z" fill="#FFB149"/>
<path d="M84.3564 40.0619H83.0724V42.1163H84.3564V40.0619Z" fill="#FFB149"/>
<path d="M83.0723 36.7234V37.2369H83.586V38.2642H83.0723V38.7779H84.3563V36.7234H83.0723Z" fill="#FFB149"/>
<path d="M84.3564 46.7388H83.0724V48.7933H84.3564V46.7388Z" fill="#FFB149"/>
<path d="M83.0723 43.4003V43.914H83.586V44.9412H83.0723V45.4548H84.3563V43.4003H83.0723Z" fill="#FFB149"/>
<path d="M84.3564 53.4158H83.0724V55.4703H84.3564V53.4158Z" fill="#FFB149"/>
<path d="M84.3564 62.1473H83.0724V64.2017H84.3564V62.1473Z" fill="#FFB149"/>
<path d="M83.0723 50.0773V50.5909H83.586V51.6181H83.0723V52.1319H84.3563V50.0773H83.0723Z" fill="#FFB149"/>
<path d="M83.0723 65.7426V66.2561H83.586V67.2834H83.0723V67.7969H84.3563V65.7426H83.0723Z" fill="#FFB149"/>
<path d="M65.097 62.1473V62.6608H65.6105V63.6881H65.097V64.2016H66.3809V62.1473H65.097Z" fill="#FFB149"/>
<path d="M65.097 65.4858V65.9994H65.6105V67.0266H65.097V67.5402H66.3809V65.4858H65.097Z" fill="#FFB149"/>
<path d="M58.4203 26.7079V27.2215H58.9339V28.2487H58.4203V28.7625H59.7042V26.7079H58.4203Z" fill="#FFB149"/>
<path d="M58.4203 39.8051V40.3187H58.9339V41.3459H58.4203V41.8595H59.7042V39.8051H58.4203Z" fill="#FFB149"/>
<path d="M58.4203 43.1435V43.6572H58.9339V44.6845H58.4203V45.198H59.7042V43.1435H58.4203Z" fill="#FFB149"/>
<path d="M58.4203 49.8206V50.3341H58.9339V51.3614H58.4203V51.8749H59.7042V49.8206H58.4203Z" fill="#FFB149"/>
<path d="M58.4203 59.3223V59.836H58.9339V60.8633H58.4203V61.3768H59.7042V59.3223H58.4203Z" fill="#FFB149"/>
<path d="M58.4203 62.1473V62.6608H58.9339V63.6881H58.4203V64.2016H59.7042V62.1473H58.4203Z" fill="#FFB149"/>
<path d="M73.0575 11.0427H71.7735V13.0971H73.0575V11.0427Z" fill="#FFB149"/>
<path d="M73.0575 14.3812H71.7735V16.4356H73.0575V14.3812Z" fill="#FFB149"/>
<path d="M73.0575 17.9765H71.2599V18.2333H73.0575V17.9765Z" fill="#FFB149"/>
<path d="M73.0575 34.4121H71.2599V34.6689H73.0575V34.4121Z" fill="#FFB149"/>
<path d="M73.0575 37.237H71.2599V37.4938H73.0575V37.237Z" fill="#FFB149"/>
<path d="M71.7735 20.2878V20.8014H72.2872V21.8286H71.7735V22.3422H73.0575V20.2878H71.7735Z" fill="#FFB149"/>
<path d="M71.7735 26.7079V27.2215H72.2872V28.2487H71.7735V28.7625H73.0575V26.7079H71.7735Z" fill="#FFB149"/>
<path d="M71.7735 39.8051V40.3187H72.2872V41.3459H71.7735V41.8595H73.0575V39.8051H71.7735Z" fill="#FFB149"/>
<path d="M87.6946 33.3849H86.4107V35.4393H87.6946V33.3849Z" fill="#FFB149"/>
<path d="M87.6946 36.7234H86.4107V38.7778H87.6946V36.7234Z" fill="#FFB149"/>
<path d="M87.6946 40.3187H85.8971V40.5755H87.6946V40.3187Z" fill="#FFB149"/>
<path d="M87.6946 56.7543H85.8971V57.0111H87.6946V56.7543Z" fill="#FFB149"/>
<path d="M87.6946 59.5792H85.8971V59.836H87.6946V59.5792Z" fill="#FFB149"/>
<path d="M86.4107 42.63V43.1435H86.9244V44.1708H86.4107V44.6845H87.6946V42.63H86.4107Z" fill="#FFB149"/>
<path d="M86.4107 49.0501V49.5638H86.9244V50.5909H86.4107V51.1046H87.6946V49.0501H86.4107Z" fill="#FFB149"/>
<path d="M86.4107 62.1473V62.6608H86.9244V63.6881H86.4107V64.2016H87.6946V62.1473H86.4107Z" fill="#FFB149"/>
<path d="M91.8033 11.0427H90.5194V13.0971H91.8033V11.0427Z" fill="#FFB149"/>
<path d="M96.1688 10.5291H94.8849V12.5835H96.1688V10.5291Z" fill="#FFB149"/>
<path d="M98.48 10.5291H97.196V12.5835H98.48V10.5291Z" fill="#FFB149"/>
<path d="M98.48 16.6924H97.196V18.7469H98.48V16.6924Z" fill="#FFB149"/>
<path d="M101.048 13.6108H99.7639V15.6652H101.048V13.6108Z" fill="#FFB149"/>
<path d="M101.048 16.9492H99.7639V19.0037H101.048V16.9492Z" fill="#FFB149"/>
<path d="M98.48 23.3694H97.196V25.4239H98.48V23.3694Z" fill="#FFB149"/>
<path d="M101.048 26.7079H99.7639V28.7624H101.048V26.7079Z" fill="#FFB149"/>
<path d="M98.48 39.2914H97.196V41.3459H98.48V39.2914Z" fill="#FFB149"/>
<path d="M96.1688 26.7079H94.8849V28.7624H96.1688V26.7079Z" fill="#FFB149"/>
<path d="M91.8033 14.3812H90.5194V16.4356H91.8033V14.3812Z" fill="#FFB149"/>
<path d="M91.8033 46.482H90.5194V48.5365H91.8033V46.482Z" fill="#FFB149"/>
<path d="M91.8033 53.159H90.5194V55.2135H91.8033V53.159Z" fill="#FFB149"/>
<path d="M91.8033 56.4975H90.5194V58.552H91.8033V56.4975Z" fill="#FFB149"/>
<path d="M91.8033 17.9765H90.0058V18.2333H91.8033V17.9765Z" fill="#FFB149"/>
<path d="M98.7367 21.0582H96.9392V21.315H98.7367V21.0582Z" fill="#FFB149"/>
<path d="M91.8033 34.4121H90.0058V34.6689H91.8033V34.4121Z" fill="#FFB149"/>
<path d="M91.8033 37.237H90.0058V37.4938H91.8033V37.237Z" fill="#FFB149"/>
<path d="M98.7367 53.6726H96.9392V53.9294H98.7367V53.6726Z" fill="#FFB149"/>
<path d="M96.6824 59.836H94.8849V60.0928H96.6824V59.836Z" fill="#FFB149"/>
<path d="M90.5193 20.2878V20.8014H91.033V21.8286H90.5193V22.3422H91.8034V20.2878H90.5193Z" fill="#FFB149"/>
<path d="M94.8848 16.6925V17.206H95.3983V18.2333H94.8848V18.7468H96.1688V16.6925H94.8848Z" fill="#FFB149"/>
<path d="M99.7639 20.0309V20.5446H100.277V21.5718H99.7639V22.0854H101.048V20.0309H99.7639Z" fill="#FFB149"/>
<path d="M99.7639 30.0465V30.56H100.277V31.5873H99.7639V32.1008H101.048V30.0465H99.7639Z" fill="#FFB149"/>
<path d="M99.7639 33.3848V33.8986H100.277V34.9258H99.7639V35.4394H101.048V33.3848H99.7639Z" fill="#FFB149"/>
<path d="M99.7639 23.1126V23.6262H100.277V24.6534H99.7639V25.1671H101.048V23.1126H99.7639Z" fill="#FFB149"/>
<path d="M97.196 13.6107V14.1244H97.7095V15.1515H97.196V15.6652H98.4799V13.6107H97.196Z" fill="#FFB149"/>
<path d="M98.48 30.0464H97.196V32.1009H98.48V30.0464Z" fill="#FFB149"/>
<path d="M98.48 36.2098H97.196V38.2642H98.48V36.2098Z" fill="#FFB149"/>
<path d="M97.196 33.1281V33.6416H97.7095V34.6689H97.196V35.1826H98.4799V33.1281H97.196Z" fill="#FFB149"/>
<path d="M94.8848 20.0309V20.5446H95.3983V21.5718H94.8848V22.0854H96.1688V20.0309H94.8848Z" fill="#FFB149"/>
<path d="M94.8848 23.3694V23.8831H95.3983V24.9102H94.8848V25.4239H96.1688V23.3694H94.8848Z" fill="#FFB149"/>
<path d="M96.1688 33.3849H94.8849V35.4393H96.1688V33.3849Z" fill="#FFB149"/>
<path d="M94.8848 30.0465V30.56H95.3983V31.5873H94.8848V32.1008H96.1688V30.0465H94.8848Z" fill="#FFB149"/>
<path d="M96.1688 40.0619H94.8849V42.1163H96.1688V40.0619Z" fill="#FFB149"/>
<path d="M94.8848 36.7234V37.2369H95.3983V38.2642H94.8848V38.7779H96.1688V36.7234H94.8848Z" fill="#FFB149"/>
<path d="M96.1688 46.7388H94.8849V48.7933H96.1688V46.7388Z" fill="#FFB149"/>
<path d="M98.48 46.2252H97.196V48.2797H98.48V46.2252Z" fill="#FFB149"/>
<path d="M94.8848 43.4003V43.914H95.3983V44.9412H94.8848V45.4548H96.1688V43.4003H94.8848Z" fill="#FFB149"/>
<path d="M99.7639 43.4003V43.914H100.277V44.9412H99.7639V45.4548H101.048V43.4003H99.7639Z" fill="#FFB149"/>
<path d="M114.144 13.6108H112.86V15.6652H114.144V13.6108Z" fill="#FFB149"/>
<path d="M114.144 16.9492H112.86V19.0037H114.144V16.9492Z" fill="#FFB149"/>
<path d="M114.144 26.7079H112.86V28.7624H114.144V26.7079Z" fill="#FFB149"/>
<path d="M112.86 20.0309V20.5446H113.374V21.5718H112.86V22.0854H114.144V20.0309H112.86Z" fill="#FFB149"/>
<path d="M112.86 30.0465V30.56H113.374V31.5873H112.86V32.1008H114.144V30.0465H112.86Z" fill="#FFB149"/>
<path d="M112.86 33.3848V33.8986H113.374V34.9258H112.86V35.4394H114.144V33.3848H112.86Z" fill="#FFB149"/>
<path d="M112.86 23.1126V23.6262H113.374V24.6534H112.86V25.1671H114.144V23.1126H112.86Z" fill="#FFB149"/>
<path d="M112.86 43.4003V43.914H113.374V44.9412H112.86V45.4548H114.144V43.4003H112.86Z" fill="#FFB149"/>
<path d="M96.1688 53.4158H94.8849V55.4703H96.1688V53.4158Z" fill="#FFB149"/>
<path d="M98.48 49.5637H97.196V51.6182H98.48V49.5637Z" fill="#FFB149"/>
<path d="M96.1688 62.1473H94.8849V64.2017H96.1688V62.1473Z" fill="#FFB149"/>
<path d="M98.48 55.9839H97.196V58.0383H98.48V55.9839Z" fill="#FFB149"/>
<path d="M94.8848 50.0773V50.5909H95.3983V51.6181H94.8848V52.1319H96.1688V50.0773H94.8848Z" fill="#FFB149"/>
<path d="M94.8848 65.7426V66.2561H95.3983V67.2834H94.8848V67.7969H96.1688V65.7426H94.8848Z" fill="#FFB149"/>
<path d="M110.292 10.5291H109.008V12.5835H110.292V10.5291Z" fill="#FFB149"/>
<path d="M110.292 26.7079H109.008V28.7624H110.292V26.7079Z" fill="#FFB149"/>
<path d="M110.806 59.836H109.008V60.0928H110.806V59.836Z" fill="#FFB149"/>
<path d="M109.009 16.6925V17.206H109.522V18.2333H109.009V18.7468H110.292V16.6925H109.009Z" fill="#FFB149"/>
<path d="M109.009 20.0309V20.5446H109.522V21.5718H109.009V22.0854H110.292V20.0309H109.009Z" fill="#FFB149"/>
<path d="M109.009 23.3694V23.8831H109.522V24.9102H109.009V25.4239H110.292V23.3694H109.009Z" fill="#FFB149"/>
<path d="M110.292 33.3849H109.008V35.4393H110.292V33.3849Z" fill="#FFB149"/>
<path d="M109.009 30.0465V30.56H109.522V31.5873H109.009V32.1008H110.292V30.0465H109.009Z" fill="#FFB149"/>
<path d="M110.292 40.0619H109.008V42.1163H110.292V40.0619Z" fill="#FFB149"/>
<path d="M109.009 36.7234V37.2369H109.522V38.2642H109.009V38.7779H110.292V36.7234H109.009Z" fill="#FFB149"/>
<path d="M110.292 46.7388H109.008V48.7933H110.292V46.7388Z" fill="#FFB149"/>
<path d="M109.009 43.4003V43.914H109.522V44.9412H109.009V45.4548H110.292V43.4003H109.009Z" fill="#FFB149"/>
<path d="M110.292 53.4158H109.008V55.4703H110.292V53.4158Z" fill="#FFB149"/>
<path d="M110.292 62.1473H109.008V64.2017H110.292V62.1473Z" fill="#FFB149"/>
<path d="M109.009 50.0773V50.5909H109.522V51.6181H109.009V52.1319H110.292V50.0773H109.009Z" fill="#FFB149"/>
<path d="M109.009 65.7426V66.2561H109.522V67.2834H109.009V67.7969H110.292V65.7426H109.009Z" fill="#FFB149"/>
<path d="M116.455 10.5291H115.171V12.5835H116.455V10.5291Z" fill="#FFB149"/>
<path d="M116.455 26.7079H115.171V28.7624H116.455V26.7079Z" fill="#FFB149"/>
<path d="M116.969 59.836H115.171V60.0928H116.969V59.836Z" fill="#FFB149"/>
<path d="M115.172 16.6925V17.206H115.685V18.2333H115.172V18.7468H116.455V16.6925H115.172Z" fill="#FFB149"/>
<path d="M115.172 20.0309V20.5446H115.685V21.5718H115.172V22.0854H116.455V20.0309H115.172Z" fill="#FFB149"/>
<path d="M115.172 23.3694V23.8831H115.685V24.9102H115.172V25.4239H116.455V23.3694H115.172Z" fill="#FFB149"/>
<path d="M116.455 33.3849H115.171V35.4393H116.455V33.3849Z" fill="#FFB149"/>
<path d="M115.172 30.0465V30.56H115.685V31.5873H115.172V32.1008H116.455V30.0465H115.172Z" fill="#FFB149"/>
<path d="M116.455 40.0619H115.171V42.1163H116.455V40.0619Z" fill="#FFB149"/>
<path d="M115.172 36.7234V37.2369H115.685V38.2642H115.172V38.7779H116.455V36.7234H115.172Z" fill="#FFB149"/>
<path d="M116.455 46.7388H115.171V48.7933H116.455V46.7388Z" fill="#FFB149"/>
<path d="M115.172 43.4003V43.914H115.685V44.9412H115.172V45.4548H116.455V43.4003H115.172Z" fill="#FFB149"/>
<path d="M116.455 53.4158H115.171V55.4703H116.455V53.4158Z" fill="#FFB149"/>
<path d="M116.455 62.1473H115.171V64.2017H116.455V62.1473Z" fill="#FFB149"/>
<path d="M115.172 50.0773V50.5909H115.685V51.6181H115.172V52.1319H116.455V50.0773H115.172Z" fill="#FFB149"/>
<path d="M115.172 65.7426V66.2561H115.685V67.2834H115.172V67.7969H116.455V65.7426H115.172Z" fill="#FFB149"/>
<path d="M97.196 62.1473V62.6608H97.7095V63.6881H97.196V64.2016H98.4799V62.1473H97.196Z" fill="#FFB149"/>
<path d="M97.196 65.4858V65.9994H97.7095V67.0266H97.196V67.5402H98.4799V65.4858H97.196Z" fill="#FFB149"/>
<path d="M90.5193 26.7079V27.2215H91.033V28.2487H90.5193V28.7625H91.8034V26.7079H90.5193Z" fill="#FFB149"/>
<path d="M90.5193 39.8051V40.3187H91.033V41.3459H90.5193V41.8595H91.8034V39.8051H90.5193Z" fill="#FFB149"/>
<path d="M90.5193 43.1435V43.6572H91.033V44.6845H90.5193V45.198H91.8034V43.1435H90.5193Z" fill="#FFB149"/>
<path d="M90.5193 49.8206V50.3341H91.033V51.3614H90.5193V51.8749H91.8034V49.8206H90.5193Z" fill="#FFB149"/>
<path d="M90.5193 59.3223V59.836H91.033V60.8633H90.5193V61.3768H91.8034V59.3223H90.5193Z" fill="#FFB149"/>
<path d="M90.5193 62.1473V62.6608H91.033V63.6881H90.5193V64.2016H91.8034V62.1473H90.5193Z" fill="#FFB149"/>
<path d="M105.157 11.0427H103.873V13.0971H105.157V11.0427Z" fill="#FFB149"/>
<path d="M105.157 14.3812H103.873V16.4356H105.157V14.3812Z" fill="#FFB149"/>
<path d="M105.157 17.9765H103.359V18.2333H105.157V17.9765Z" fill="#FFB149"/>
<path d="M105.157 34.4121H103.359V34.6689H105.157V34.4121Z" fill="#FFB149"/>
<path d="M105.157 37.237H103.359V37.4938H105.157V37.237Z" fill="#FFB149"/>
<path d="M103.873 20.2878V20.8014H104.386V21.8286H103.873V22.3422H105.156V20.2878H103.873Z" fill="#FFB149"/>
<path d="M103.873 26.7079V27.2215H104.386V28.2487H103.873V28.7625H105.156V26.7079H103.873Z" fill="#FFB149"/>
<path d="M103.873 39.8051V40.3187H104.386V41.3459H103.873V41.8595H105.156V39.8051H103.873Z" fill="#FFB149"/>
<path d="M119.794 33.3849H118.51V35.4393H119.794V33.3849Z" fill="#FFB149"/>
<path d="M119.794 36.7234H118.51V38.7778H119.794V36.7234Z" fill="#FFB149"/>
<path d="M119.794 40.3187H117.996V40.5755H119.794V40.3187Z" fill="#FFB149"/>
<path d="M119.794 56.7543H117.996V57.0111H119.794V56.7543Z" fill="#FFB149"/>
<path d="M119.794 59.5792H117.996V59.836H119.794V59.5792Z" fill="#FFB149"/>
<path d="M118.51 42.63V43.1435H119.023V44.1708H118.51V44.6845H119.794V42.63H118.51Z" fill="#FFB149"/>
<path d="M118.51 49.0501V49.5638H119.023V50.5909H118.51V51.1046H119.794V49.0501H118.51Z" fill="#FFB149"/>
<path d="M118.51 62.1473V62.6608H119.023V63.6881H118.51V64.2016H119.794V62.1473H118.51Z" fill="#FFB149"/>
<path d="M173.397 117.575H35.6823V118H173.397V117.575Z" fill="#2F2E41"/>
<path d="M64.1478 67.2865V75.9398L65.3126 81.265C65.3126 81.265 65.1462 84.5932 65.3126 85.5917C65.479 86.5901 65.1462 88.2542 64.1478 88.2542C63.1494 88.2542 62.6502 90.7504 62.6502 90.7504C62.6502 90.7504 62.3174 91.7489 61.4854 91.9153C60.6534 92.0817 60.6534 91.9153 60.6534 91.9153L59.9878 93.5794L46.1765 102.732L48.8389 109.388C48.8389 109.388 52.9989 107.891 53.3317 107.391C53.6645 106.892 56.4933 108.057 56.4933 106.892C56.4933 105.727 56.9926 102.732 57.991 102.566C58.9894 102.399 67.3094 98.5717 67.3094 98.5717C67.3094 98.5717 71.6359 93.7458 71.9687 91.9153C72.3015 90.0848 73.7991 84.926 73.7991 84.926L77.9591 91.9153V105.894L77.2935 113.382L84.6152 112.384C84.6152 112.384 83.9496 107.724 84.6152 107.059C85.2808 106.393 86.2792 98.4053 85.6136 97.4068C84.948 96.4084 85.9464 91.9153 85.6136 91.2496C85.2808 90.584 85.4472 85.7581 84.6152 84.4268C83.7832 83.0955 78.7911 69.4498 78.7911 69.4498L64.1478 67.2865Z" fill="#2F2E41"/>
<path d="M78.2919 113.049C78.2919 113.049 75.7959 117.21 77.4599 117.709C79.1239 118.208 82.2856 117.709 82.6184 117.709C82.9512 117.709 88.9416 117.875 88.9416 117.875C88.9416 117.875 92.9353 117.043 92.9353 115.878C92.9353 114.714 90.4392 114.714 89.6072 114.547C88.7752 114.381 83.6168 112.384 83.6168 112.384L78.2919 113.049Z" fill="#2F2E41"/>
<path d="M46.9406 102.92C46.9406 102.92 42.1312 102.283 42.3345 104.008C42.5379 105.734 44.2526 108.437 44.3849 108.742C44.4745 108.949 45.5255 111.567 46.1945 113.236C46.6781 114.459 47.4047 115.572 48.3304 116.506C48.9845 117.16 49.6975 117.684 50.1651 117.482C51.234 117.019 50.2419 114.728 50.0639 113.899C49.8859 113.069 49.6679 107.542 49.6679 107.542L46.9406 102.92Z" fill="#2F2E41"/>
<path d="M80.372 39.7455L85.6968 27.4311C85.6968 27.4311 85.1976 26.2662 84.0328 26.4326C84.0328 26.4326 82.452 22.3555 79.4568 22.3555C79.4568 22.3555 74.9639 19.8594 73.6327 22.3555C73.6327 22.3555 70.8039 24.8517 70.9703 27.1815C71.1367 29.5112 71.3031 31.1753 71.3031 31.1753C71.3031 31.1753 68.6407 31.5081 69.1399 32.8394C69.6391 34.1707 69.8055 34.1707 69.1399 34.6699L68.4743 35.1692C68.4743 35.1692 54.6629 47.65 62.3174 65.9552L62.983 68.7842V71.4467C62.983 71.4467 79.7896 71.6131 79.7896 71.4467C79.7896 71.2803 79.4568 70.2819 80.1224 69.6162C80.788 68.9506 80.788 67.9521 80.788 67.9521C80.788 67.9521 80.1224 64.6239 80.4552 63.6254C80.788 62.627 80.9544 58.3003 80.2888 57.3018C79.6232 56.3034 79.956 48.3156 79.956 48.3156L81.4536 45.4867L80.9544 43.8225L80.4552 42.1584L80.372 39.7455Z" fill="#8985A8"/>
<path opacity="0.1" d="M78.9575 73.1109C78.9575 73.1109 76.9607 67.6193 77.1271 66.6208C77.2935 65.6224 76.7943 63.6254 76.7943 63.6254L76.1287 50.1462C76.1287 50.1462 78.9575 38.1646 72.6343 36.1676C72.6343 36.1676 71.0343 36.8658 69.7233 39.1126C68.4269 39.6901 66.8538 41.1515 66.4774 44.821C65.8118 51.311 68.807 67.9521 70.3047 70.7811C71.8023 73.6101 72.8007 75.607 72.8007 75.607L74.3659 74.9113C74.4306 75.0395 74.4647 75.1078 74.4647 75.1078L78.9575 73.1109Z" fill="black"/>
<path d="M79.8727 38.2478C80.1484 38.2478 80.3719 38.0243 80.3719 37.7486C80.3719 37.4728 80.1484 37.2493 79.8727 37.2493C79.597 37.2493 79.3735 37.4728 79.3735 37.7486C79.3735 38.0243 79.597 38.2478 79.8727 38.2478Z" fill="#F2F2F2"/>
<path d="M80.0392 37.7486H79.7064V45.5699H80.0392V37.7486Z" fill="#3F3D56"/>
<path d="M73.8823 73.6933L75.2135 76.5223C75.2135 76.5223 78.2088 75.5238 78.2088 75.0246C78.2088 74.5253 76.8775 72.362 76.8775 72.362L73.8823 73.6933Z" fill="#FFB8B8"/>
<path d="M71.9687 36.1676C71.9687 36.1676 68.1414 37.8318 67.4758 44.3218C66.8102 50.8118 69.8055 67.4529 71.3031 70.2819C72.8007 73.1109 73.7991 75.1078 73.7991 75.1078L78.2919 73.1109C78.2919 73.1109 76.2951 67.6193 76.4615 66.6208C76.6279 65.6224 76.1287 63.6254 76.1287 63.6254L75.4631 50.1462C75.4631 50.1462 78.2919 38.1646 71.9687 36.1676Z" fill="#8985A8"/>
</g>
<defs>
<clipPath id="clip0">
<rect width="173.397" height="118" fill="white"/>
</clipPath>
</defs>
</svg>
