<svg width="422" height="340" viewBox="0 0 422 340" fill="none" xmlns="http://www.w3.org/2000/svg">
<g clip-path="url(#clip0)">
<path d="M195.532 0H25.0966V301.035H195.532V0Z" fill="#3F3D56"/>
<path d="M210.523 307.398C326.791 307.398 421.046 305.209 421.046 302.508C421.046 299.808 326.791 297.618 210.523 297.618C94.2543 297.618 0 299.808 0 302.508C0 305.209 94.2543 307.398 210.523 307.398Z" fill="#3F3D56"/>
<path d="M210.523 322.068C291.017 322.068 356.269 320.552 356.269 318.682C356.269 316.813 291.017 315.297 210.523 315.297C130.029 315.297 64.7763 316.813 64.7763 318.682C64.7763 320.552 130.029 322.068 210.523 322.068Z" fill="#3F3D56"/>
<path d="M210.589 336.113C276.252 336.113 329.481 334.877 329.481 333.352C329.481 331.827 276.252 330.59 210.589 330.59C144.927 330.59 91.6975 331.827 91.6975 333.352C91.6975 334.877 144.927 336.113 210.589 336.113Z" fill="#3F3D56"/>
<path d="M195.532 57.7362H25.0966V58.7447H195.532V57.7362Z" fill="#D0CDE1"/>
<path d="M195.532 119.254H25.0966V120.263H195.532V119.254Z" fill="#D0CDE1"/>
<path d="M195.532 180.772H25.0966V181.781H195.532V180.772Z" fill="#D0CDE1"/>
<path d="M195.532 242.29H25.0966V243.299H195.532V242.29Z" fill="#D0CDE1"/>
<path d="M103.269 134.183L103.269 134.183L100.264 124.839L99.686 125.351C98.0047 126.891 96.0107 128.049 93.8404 128.747C91.6701 129.445 89.3747 129.666 87.1111 129.395L86.3429 129.316L89.3478 138.66L89.3477 138.66L91.4102 145.074L91.4103 145.073L98.3502 166.654L98.35 166.654L100.413 173.067L102.691 180.15L103.252 179.751C106.941 177.093 111.375 175.667 115.923 175.677L116.611 175.674L114.334 168.591L114.334 168.591L112.271 162.177L112.271 162.177L105.331 140.597L105.331 140.597L103.269 134.183ZM87.7709 130.462C92.1224 130.798 96.4316 129.412 99.7719 126.603L102.309 134.492L90.3079 138.351L87.7709 130.462ZM90.6167 139.311L102.617 135.452L104.062 139.945L92.0617 143.805L90.6167 139.311ZM115.233 174.68C110.946 174.797 106.783 176.136 103.232 178.54L101.372 172.758L113.374 168.899L115.233 174.68ZM113.065 167.939L101.064 171.798L99.619 167.305L111.62 163.446L113.065 167.939ZM111.311 162.486L99.3101 166.345L92.3704 144.765L104.371 140.905L111.311 162.486Z" fill="#D0CDE1"/>
<path d="M43.7678 72.6651L43.7677 72.6652L40.7628 63.3211L40.1849 63.8332C38.5036 65.3729 36.5096 66.5313 34.3393 67.2292C32.169 67.9271 29.8736 68.1481 27.61 67.877L26.8418 67.7978L29.8467 77.1418L29.8466 77.1418L31.9092 83.5555L31.9092 83.5554L38.849 105.136L38.8489 105.136L40.9115 111.549L40.9116 111.549L43.1894 118.633L43.7508 118.233C47.4403 115.575 51.8744 114.149 56.4215 114.159L57.1104 114.156L54.8325 107.073L54.8327 107.073L52.7701 100.659L52.77 100.659L45.8301 79.0786L45.8303 79.0785L43.7678 72.6651ZM28.2699 68.9441C32.6213 69.2801 36.9308 67.8943 40.2708 65.085L42.8078 72.9739L30.8068 76.8331L28.2699 68.9441ZM31.1156 77.7933L43.1163 73.9341L44.5614 78.427L32.5606 82.2865L31.1156 77.7933ZM55.7316 113.162C51.4453 113.28 47.2817 114.618 43.7306 117.022L41.8716 111.241L53.8725 107.381L55.7316 113.162ZM53.5637 106.421L41.563 110.28L40.1179 105.787L52.1186 101.928L53.5637 106.421ZM51.81 100.968L39.8091 104.827L32.8693 83.2467L44.8702 79.3873L51.81 100.968Z" fill="#D0CDE1"/>
<path d="M394.67 59.2385C393.303 59.2385 391.966 58.8331 390.83 58.0737C389.693 57.3142 388.807 56.2348 388.284 54.9718C387.761 53.7089 387.624 52.3192 387.891 50.9785C388.158 49.6378 388.816 48.4063 389.783 47.4397C390.749 46.4731 391.981 45.8148 393.321 45.5481C394.662 45.2815 396.052 45.4183 397.315 45.9415C398.578 46.4646 399.657 47.3505 400.417 48.4871C401.176 49.6237 401.581 50.9599 401.581 52.3269C401.579 54.1593 400.85 55.9161 399.555 57.2118C398.259 58.5075 396.502 59.2364 394.67 59.2385ZM394.67 46.5673C393.531 46.5673 392.417 46.9051 391.47 47.538C390.523 48.1708 389.784 49.0704 389.348 50.1228C388.913 51.1752 388.799 52.3333 389.021 53.4506C389.243 54.5678 389.792 55.5941 390.597 56.3996C391.403 57.2051 392.429 57.7536 393.546 57.9759C394.663 58.1981 395.821 58.0841 396.874 57.6481C397.926 57.2122 398.826 56.474 399.459 55.5268C400.092 54.5796 400.429 53.4661 400.429 52.3269C400.428 50.7999 399.82 49.3359 398.741 48.2561C397.661 47.1763 396.197 46.569 394.67 46.5673Z" fill="#3F3D56"/>
<path d="M407.151 259.709H395.781V248.338H407.151V259.709ZM396.655 258.834H406.276V249.213H396.655V258.834Z" fill="#3F3D56"/>
<path d="M223.982 81.4733L216.226 73.1585L224.541 65.4031L232.296 73.7179L223.982 81.4733ZM217.462 73.2016L224.025 80.2371L231.06 73.6749L224.498 66.6393L217.462 73.2016Z" fill="#3F3D56"/>
<path d="M346.875 183.623L330.88 203.03L354.552 230.967L370.334 212.413L346.875 183.623Z" fill="#6C63FF"/>
<path opacity="0.1" d="M346.875 183.623L330.88 203.03L354.552 230.967L370.334 212.413L346.875 183.623Z" fill="black"/>
<path d="M331.52 203.243C331.874 202.606 332.313 202.021 332.824 201.502L347.515 186.609C347.515 186.609 352.633 185.756 353.699 188.315L334.932 203.67L331.52 203.243Z" fill="#F2F2F2"/>
<path d="M330.774 202.923L352.526 236.192C352.526 236.192 354.659 237.685 356.792 236.832L379.078 221.797L355.406 185.969L334.079 202.603L330.774 202.923Z" fill="#6C63FF"/>
<path d="M358.313 199.221L343.685 209.069L347.337 214.493L361.965 204.645L358.313 199.221Z" fill="#3F3D56"/>
<path d="M349.075 175.73C349.075 175.73 351.092 190.857 344.032 190.353C336.973 189.849 340.503 176.738 340.503 176.738L349.075 175.73Z" fill="#FFB8B8"/>
<path d="M293.608 121.271L285.036 120.263V119.254L276.968 118.246C276.968 118.246 259.319 151.526 260.328 172.704C261.336 193.883 274.951 286.664 274.951 286.664C274.951 286.664 296.129 284.647 299.155 278.596L295.625 257.922L293.608 233.214C293.608 233.214 307.222 302.296 313.273 302.296C319.324 302.296 336.973 298.766 335.46 296.245C333.948 293.723 315.795 216.07 315.795 216.07L313.778 178.251L309.239 122.784L293.608 121.271Z" fill="#2F2E41"/>
<path d="M300.667 70.8466C308.465 70.8466 314.786 64.5254 314.786 56.7277C314.786 48.9301 308.465 42.6088 300.667 42.6088C292.87 42.6088 286.548 48.9301 286.548 56.7277C286.548 64.5254 292.87 70.8466 300.667 70.8466Z" fill="#FFB8B8"/>
<path d="M301.172 66.3084C301.172 66.3084 306.718 78.9146 302.684 84.4613C298.65 90.008 324.367 75.3848 324.367 75.3848C324.367 75.3848 311.761 63.2829 311.256 57.7362L301.172 66.3084Z" fill="#FFB8B8"/>
<path d="M324.367 73.3679C324.367 73.3679 311.256 81.4358 300.667 78.4103L274.447 121.271L317.812 129.339L327.392 74.8806L324.367 73.3679Z" fill="#D0CDE1"/>
<path d="M318.316 71.8551C318.316 71.8551 320.333 69.3339 322.854 70.8466C325.375 72.3594 341.511 72.8636 342.52 79.4188C343.528 85.974 318.316 185.815 318.316 185.815L314.282 184.806C314.282 184.806 318.82 183.294 301.172 178.755C283.523 174.217 281.002 159.09 285.036 140.937C289.07 122.784 290.582 111.691 290.582 111.691L318.316 71.8551Z" fill="#575A89"/>
<path d="M303.842 75.3381C303.842 75.3381 286.044 82.9485 285.54 85.4698C285.036 87.991 265.874 133.373 265.874 133.373L261.84 136.903L263.857 138.416L249.234 170.687C249.234 170.687 249.738 174.721 257.302 174.721H261.84C261.84 174.721 269.404 136.399 274.447 129.339C279.489 122.28 312.059 81.8466 303.842 75.3381Z" fill="#575A89"/>
<path d="M335.965 76.8976C335.965 76.8976 342.52 74.8806 344.032 87.991C345.545 101.101 345.041 109.674 345.041 109.674L351.596 178.251L337.477 179.764L324.871 102.614L335.965 76.8976Z" fill="#575A89"/>
<path d="M278.985 283.134C278.985 283.134 278.985 293.219 274.447 294.732C269.908 296.245 256.294 308.347 272.43 307.842C288.565 307.338 287.053 299.774 287.053 299.774V297.757L291.087 299.774L299.155 297.757C299.155 297.757 301.676 280.109 299.155 278.596C296.633 277.083 278.985 283.134 278.985 283.134Z" fill="#2F2E41"/>
<path d="M316.803 299.774C316.803 299.774 317.307 314.902 311.256 321.961C305.206 329.021 298.65 338.601 306.718 339.61C314.786 340.618 329.409 334.567 328.905 331.038C328.401 327.508 328.905 326.5 328.905 326.5H331.426L335.46 323.474C335.46 323.474 337.981 298.766 333.443 296.749C328.905 294.732 316.803 299.774 316.803 299.774Z" fill="#2F2E41"/>
<path d="M273.438 109.169L276.968 104.127C276.968 104.127 283.523 98.0759 288.061 101.101C292.599 104.127 279.566 112.902 279.566 112.902H275.925L274.446 113.912L273.438 109.169Z" fill="#FFB8B8"/>
<path d="M292.851 121.019C293.965 121.019 294.868 120.116 294.868 119.002C294.868 117.888 293.965 116.985 292.851 116.985C291.738 116.985 290.835 117.888 290.835 119.002C290.835 120.116 291.738 121.019 292.851 121.019Z" fill="#2F2E41"/>
<path d="M292.347 128.583C293.461 128.583 294.364 127.68 294.364 126.566C294.364 125.452 293.461 124.549 292.347 124.549C291.233 124.549 290.33 125.452 290.33 126.566C290.33 127.68 291.233 128.583 292.347 128.583Z" fill="#2F2E41"/>
<path d="M268.396 115.725L274.446 104.127C274.446 104.127 274.52 114.838 278.265 115.029L270.412 126.314L268.396 115.725Z" fill="#575A89"/>
<path d="M282.287 52.5601C282.287 52.5601 274.132 29.4562 300.716 31.8983C300.716 31.8983 317.806 24.8136 328.419 45.8145L339.336 67.8734L336.12 66.9246L335.408 70.1469L330.996 72.3303L328.149 68.7963L328.216 73.8159L290.821 85.8311C290.821 85.8311 305.763 72.0343 302.139 53.8357L299.618 57.9808L282.287 52.5601Z" fill="#2F2E41"/>
<path d="M159.226 229.382V234.954C159.244 236.412 158.682 237.817 157.664 238.862C156.646 239.907 155.256 240.505 153.798 240.525H137.93C136.471 240.505 135.081 239.907 134.063 238.862C133.046 237.817 132.484 236.412 132.501 234.954V229.382C132.484 227.923 133.046 226.518 134.063 225.473C135.081 224.429 136.471 223.83 137.93 223.81H142.941V223.381H148.787V223.81H153.798C155.256 223.83 156.646 224.429 157.664 225.473C158.682 226.518 159.244 227.923 159.226 229.382Z" fill="#6C63FF"/>
<path d="M158.218 220.86H152.167V212.288H149.141V207.86C149.37 207.94 149.61 207.979 149.852 207.976C151.476 207.976 154.002 206.62 156.175 204.865C158.171 203.159 159.643 200.923 160.421 198.416L160.608 197.735L159.907 197.776C157.289 197.999 154.789 198.96 152.696 200.549C151.334 201.613 150.136 202.872 149.141 204.285V197.917C150.467 197.024 151.158 193.802 151.158 190.605C151.082 187.98 150.262 185.431 148.793 183.253L148.385 182.683L147.976 183.253C146.508 185.431 145.688 187.98 145.612 190.605C145.612 194.185 146.479 197.801 148.133 198.134V212.288H145.107V220.86H139.056C137.318 220.862 135.652 221.553 134.423 222.782C133.194 224.011 132.503 225.677 132.501 227.415V233.97C132.503 235.708 133.194 237.375 134.423 238.604C135.652 239.833 137.318 240.524 139.056 240.525H158.218C159.956 240.524 161.622 239.833 162.851 238.604C164.08 237.375 164.771 235.708 164.773 233.97V227.415C164.771 225.677 164.08 224.011 162.851 222.782C161.622 221.553 159.956 220.862 158.218 220.86ZM153.327 201.33C155.046 200.032 157.064 199.188 159.196 198.875C158.438 200.891 157.182 202.683 155.545 204.084C152.474 206.554 149.772 207.366 149.333 206.817C148.889 206.272 150.261 203.806 153.327 201.33ZM146.62 190.605C146.685 188.452 147.292 186.35 148.385 184.494C149.479 186.349 150.086 188.452 150.15 190.605C150.15 194.548 149.086 197.16 148.385 197.16C147.684 197.16 146.62 194.548 146.62 190.605V190.605ZM163.764 233.97C163.764 235.441 163.179 236.851 162.139 237.891C161.099 238.931 159.689 239.516 158.218 239.517H139.056C137.586 239.516 136.175 238.931 135.135 237.891C134.095 236.851 133.51 235.441 133.51 233.97V227.415C133.51 225.944 134.095 224.534 135.135 223.494C136.175 222.454 137.586 221.869 139.056 221.868H146.116V213.296H151.158V221.868H158.218C159.689 221.869 161.099 222.454 162.139 223.494C163.179 224.534 163.764 225.944 163.764 227.415V233.97Z" fill="#D0CDE1"/>
<path d="M83.5892 136.651V138.378H70.9831V136.651H69.9746V170.939H70.9831V169.889H83.5892V170.939H84.5977V136.651H83.5892ZM83.5892 164.016H70.9831V144.251H83.5892V164.016Z" fill="#6C63FF"/>
<path d="M63.9236 140.18V141.73H51.3175V140.18H50.309V170.939H51.3175V169.997H63.9236V170.939H64.9321V140.18H63.9236ZM63.9236 164.729H51.3175V146.999H63.9236V164.729Z" fill="#6C63FF"/>
<path d="M44.258 136.651V138.277H31.6518V136.651H30.6434V168.923H31.6518V167.934H44.258V168.923H45.2665V136.651H44.258ZM44.258 162.406H31.6518V143.804H44.258V162.406Z" fill="#6C63FF"/>
<path d="M187.464 76.1412V77.8688H174.858V76.1412H173.849V110.43H174.858V109.379H187.464V110.43H188.472V76.1412H187.464ZM187.464 103.506H174.858V83.7419H187.464V103.506Z" fill="#6C63FF"/>
<path d="M167.798 79.6709V81.2207H155.192V79.6709H154.184V110.43H155.192V109.487H167.798V110.43H168.807V79.6709H167.798ZM167.798 104.219H155.192V86.4892H167.798V104.219Z" fill="#6C63FF"/>
<path d="M148.133 76.1412V77.7672H135.527V76.1412H134.518V108.413H135.527V107.424H148.133V108.413H149.141V76.1412H148.133ZM148.133 101.897H135.527V83.2948H148.133V101.897Z" fill="#6C63FF"/>
<path d="M83.8918 127.11C81.8197 128.062 79.5664 128.555 77.2862 128.555C75.0059 128.555 72.7526 128.062 70.6806 127.11L69.9746 126.803V180.202L70.6301 179.991C74.9568 178.589 79.6156 178.589 83.9422 179.991L84.5977 180.202V126.803L83.8918 127.11ZM70.9831 166.023V143.352H83.5892V166.023H70.9831ZM83.5892 167.032V171.751H70.9831V167.032H83.5892ZM70.9831 142.344V137.624H83.5892V142.344H70.9831ZM83.5892 178.831C79.4724 177.634 75.0999 177.634 70.9831 178.831V172.76H83.5892V178.831ZM83.5892 136.615H70.9831V128.331C75.0234 129.98 79.5489 129.98 83.5892 128.331V136.615Z" fill="#D0CDE1"/>
<path d="M64.2755 179.992L64.9321 180.201V126.802L64.225 127.113C62.1531 128.064 59.9003 128.556 57.6205 128.556C55.3408 128.556 53.0879 128.064 51.0161 127.113L50.309 126.802V180.201L50.9656 179.992C55.2916 178.591 59.9495 178.591 64.2755 179.992ZM63.9236 171.752H51.3175V167.032H63.9236V171.752ZM63.9236 142.346H51.3175V137.626H63.9236V142.346ZM51.3175 128.331C55.3575 129.981 59.8836 129.981 63.9236 128.331V136.617H51.3175V128.331ZM51.3175 143.354H63.9236V166.023H51.3175V143.354ZM51.3175 172.76H63.9236V178.833C59.8074 177.632 55.4337 177.632 51.3175 178.833V172.76Z" fill="#D0CDE1"/>
<path d="M44.6099 179.992L45.2665 180.201V126.802L44.5594 127.113C42.4875 128.064 40.2347 128.556 37.9549 128.556C35.6752 128.556 33.4223 128.064 31.3505 127.113L30.6434 126.802V180.201L31.3 179.992C35.6259 178.591 40.2839 178.591 44.6099 179.992ZM44.258 171.752H31.6518V167.032H44.258V171.752ZM44.258 142.346H31.6518V137.626H44.258V142.346ZM31.6518 128.331C35.6919 129.981 40.218 129.981 44.258 128.331V136.617H31.6518V128.331ZM31.6518 143.354H44.258V166.023H31.6518V143.354ZM31.6518 172.76H44.258V178.833C40.1418 177.632 35.7681 177.632 31.6518 178.833V172.76Z" fill="#D0CDE1"/>
<path d="M148.485 118.474L149.141 118.683V65.2841L148.434 65.5946C146.362 66.5458 144.109 67.0383 141.83 67.0383C139.55 67.0383 137.297 66.5458 135.225 65.5946L134.518 65.2841V118.683L135.175 118.474C139.501 117.073 144.159 117.073 148.485 118.474ZM148.133 110.233H135.527V105.514H148.133V110.233ZM148.133 80.8276H135.527V76.1077H148.133V80.8276ZM135.527 66.8126C139.567 68.4628 144.093 68.4628 148.133 66.8126V75.0992H135.527V66.8126ZM135.527 81.8361H148.133V104.505H135.527V81.8361ZM135.527 111.242H148.133V117.315C144.016 116.114 139.643 116.114 135.527 117.315V111.242Z" fill="#D0CDE1"/>
<path d="M168.15 118.474L168.807 118.683V65.2841L168.1 65.5946C166.028 66.5458 163.775 67.0383 161.495 67.0383C159.216 67.0383 156.963 66.5458 154.891 65.5946L154.184 65.2841V118.683L154.84 118.474C159.166 117.073 163.824 117.073 168.15 118.474ZM167.798 110.233H155.192V105.514H167.798V110.233ZM167.798 80.8276H155.192V76.1077H167.798V80.8276ZM155.192 66.8126C159.232 68.4628 163.758 68.4628 167.798 66.8126V75.0992H155.192V66.8126ZM155.192 81.8361H167.798V104.505H155.192V81.8361ZM155.192 111.242H167.798V117.315C163.682 116.114 159.309 116.114 155.192 117.315V111.242Z" fill="#D0CDE1"/>
<path d="M187.816 118.474L188.472 118.683V65.2841L187.765 65.5946C185.694 66.5458 183.441 67.0383 181.161 67.0383C178.881 67.0383 176.628 66.5458 174.556 65.5946L173.849 65.2841V118.683L174.506 118.474C178.832 117.073 183.49 117.073 187.816 118.474ZM187.464 110.233H174.858V105.514H187.464V110.233ZM187.464 80.8276H174.858V76.1077H187.464V80.8276ZM174.858 66.8126C178.898 68.4628 183.424 68.4628 187.464 66.8126V75.0992H174.858V66.8126ZM174.858 81.8361H187.464V104.505H174.858V81.8361ZM174.858 117.315V111.242H187.464V117.315C183.348 116.114 178.974 116.114 174.858 117.315Z" fill="#D0CDE1"/>
</g>
<defs>
<clipPath id="clip0">
<rect width="421.046" height="339.722" fill="white"/>
</clipPath>
</defs>
</svg>
