<svg width="153" height="135" viewBox="0 0 153 135" fill="none" xmlns="http://www.w3.org/2000/svg">
<g clip-path="url(#clip0)">
<path d="M129.626 50.119C122.35 21.5073 97.2081 0.853613 67.6973 0.0252123C52.0958 -0.412737 35.6787 4.76158 23.7259 22.8684C2.35881 55.2363 25.0389 77.6035 40.8509 88.232C48.49 93.3772 55.3732 99.5638 61.3013 106.613C71.9817 119.287 92.5285 135.036 116.999 110.359C134.735 92.4736 134.473 69.1773 129.626 50.119Z" fill="#F2F2F2"/>
<path d="M76.4811 126.693C118.72 126.693 152.962 124.963 152.962 122.827C152.962 120.692 118.72 118.961 76.4811 118.961C34.2417 118.961 0 120.692 0 122.827C0 124.963 34.2417 126.693 76.4811 126.693Z" fill="#3F3D56"/>
<path d="M123.073 130.728C139.601 130.728 153 130.05 153 129.215C153 128.379 139.601 127.702 123.073 127.702C106.544 127.702 93.1453 128.379 93.1453 129.215C93.1453 130.05 106.544 130.728 123.073 130.728Z" fill="#3F3D56"/>
<path d="M66.5731 134.762C83.1015 134.762 96.5005 134.084 96.5005 133.249C96.5005 132.413 83.1015 131.736 66.5731 131.736C50.0447 131.736 36.6457 132.413 36.6457 133.249C36.6457 134.084 50.0447 134.762 66.5731 134.762Z" fill="#3F3D56"/>
<path d="M114.533 58.8593C114.533 58.8593 119.617 58.7852 118.534 60.3139C117.451 61.8427 113.248 61.7359 113.248 61.7359L114.533 58.8593Z" fill="#FFB9B9"/>
<path d="M98.8943 40.0073L104.039 46.9928L108.488 52.3073C108.488 52.3073 113.097 57.1152 113.611 57.7801C114.125 58.445 115.635 58.2549 115.314 59.2682C114.992 60.2816 114.513 61.9697 114.011 62.1451C113.509 62.3205 111.151 62.0187 110.978 61.685C110.805 61.3513 99.7873 55.124 95.8554 50.6425L92.1134 48.1026L92.0573 43.8054L98.8943 40.0073Z" fill="#FFB149"/>
<path d="M98.8943 40.0073L104.039 46.9928L108.488 52.3073C108.488 52.3073 113.097 57.1152 113.611 57.7801C114.125 58.445 115.635 58.2549 115.314 59.2682C114.992 60.2816 114.513 61.9697 114.011 62.1451C113.509 62.3205 111.151 62.0187 110.978 61.685C110.805 61.3513 99.7873 55.124 95.8554 50.6425L92.1134 48.1026L92.0573 43.8054L98.8943 40.0073Z" fill="#FF6584"/>
<path opacity="0.1" d="M98.8943 40.0073L104.039 46.9928L108.488 52.3073C108.488 52.3073 113.097 57.1152 113.611 57.7801C114.125 58.445 115.635 58.2549 115.314 59.2682C114.992 60.2816 114.513 61.9697 114.011 62.1451C113.509 62.3205 111.151 62.0187 110.978 61.685C110.805 61.3513 99.7873 55.124 95.8554 50.6425L92.1134 48.1026L92.0573 43.8054L98.8943 40.0073Z" fill="black"/>
<path d="M101.022 36.7652L102.092 39.2865H103.039L101.695 32.8991C101.695 28.7993 99.7157 25.335 95.6159 25.335H95.6158C94.2411 25.335 92.9227 25.8811 91.9507 26.8532C90.9786 27.8253 90.4325 29.1437 90.4325 30.5184V36.7827C90.4325 37.4468 90.6963 38.0836 91.1659 38.5532C91.6354 39.0227 92.2723 39.2865 92.9363 39.2865H100.287L101.022 36.7652Z" fill="#2F2E41"/>
<path d="M83.6249 101.228C83.6249 101.228 82.1121 103.245 82.1121 103.749C82.1121 104.253 81.2716 104.421 80.7674 104.926C80.2631 105.43 79.7588 105.262 80.095 105.766C80.4312 106.27 75.8928 109.296 75.8928 109.296L71.5224 115.011L72.699 116.02L76.0608 112.49L75.5566 118.709L80.2631 123.079C80.2631 123.079 82.2802 123.416 82.4483 123.079C82.6164 122.743 80.7674 119.381 80.7674 119.381C80.7674 119.381 80.9355 116.356 81.944 115.179C82.5696 114.444 83.1319 113.656 83.6249 112.826C83.6249 112.826 83.1206 112.154 84.2973 111.986C85.4739 111.817 84.6335 110.809 84.6335 110.809C84.6335 110.809 84.9696 110.641 85.9782 110.641C86.9867 110.641 91.5252 105.766 91.5252 105.766L83.6249 101.228Z" fill="#2F2E41"/>
<path d="M102.451 106.439C102.451 106.439 101.779 108.792 102.955 110.137C104.132 111.481 102.955 111.145 102.955 111.145C102.955 111.145 103.123 112.154 102.451 112.658C101.779 113.162 101.779 114.171 101.779 114.171C101.779 114.171 100.938 115.852 101.106 116.86C101.274 117.869 101.274 122.911 101.274 122.911H102.955V118.541L106.317 122.911H114.722C114.722 122.911 114.553 122.071 113.713 121.903C112.873 121.735 110.351 121.903 109.847 118.373C109.847 118.373 109.679 116.356 109.343 116.02C109.007 115.684 108.67 114.507 109.007 113.666C109.343 112.826 109.007 112.49 109.511 112.154C110.015 111.817 110.183 110.809 109.847 110.305C109.511 109.8 108.502 108.96 109.679 108.456C110.856 107.951 110.856 105.43 110.856 105.43L102.451 106.439Z" fill="#2F2E41"/>
<path d="M91.357 66.0969C91.357 66.0969 89.508 67.6097 91.8613 73.8291C94.2146 80.0484 95.2231 88.1167 95.2231 88.1167C95.2231 88.1167 92.8698 90.1338 92.8698 91.1423C92.8698 92.1509 82.4483 98.5383 83.1206 101.396C83.793 104.253 96.0636 109.632 97.2402 109.296C98.4168 108.96 104.132 92.8232 104.132 92.8232C104.132 92.8232 101.947 75.0057 101.779 74.8376C101.611 74.6695 96.5678 66.4331 96.5678 66.4331L93.5422 60.2137L91.357 66.0969Z" fill="#2F2E41"/>
<path opacity="0.1" d="M91.357 66.0969C91.357 66.0969 89.508 67.6097 91.8613 73.8291C94.2146 80.0484 95.2231 88.1167 95.2231 88.1167C95.2231 88.1167 92.8698 90.1338 92.8698 91.1423C92.8698 92.1509 82.4483 98.5383 83.1206 101.396C83.793 104.253 96.0636 109.632 97.2402 109.296C98.4168 108.96 104.132 92.8232 104.132 92.8232C104.132 92.8232 101.947 75.0057 101.779 74.8376C101.611 74.6695 96.5678 66.4331 96.5678 66.4331L93.5422 60.2137L91.357 66.0969Z" fill="black"/>
<path d="M91.1889 62.2308C91.1889 62.2308 89.8442 67.1055 93.0379 72.1482C96.2316 77.1909 99.9296 87.6125 99.9296 87.6125C99.9296 87.6125 103.46 98.5383 101.947 106.439C101.947 106.439 101.442 107.447 102.787 107.447C104.132 107.447 118.251 107.111 117.075 103.581C115.898 100.051 110.687 83.5783 110.687 83.5783L103.964 66.9374L103.628 61.8947L101.106 58.0286H95.8955L91.1889 62.2308Z" fill="#2F2E41"/>
<path d="M67.6746 67.2735C67.6746 67.2735 62.59 67.2735 63.6954 68.7863C64.8007 70.2991 69.0011 70.1311 69.0011 70.1311L67.6746 67.2735Z" fill="#FFB9B9"/>
<path d="M94.2986 32.5629C94.2986 32.5629 94.6348 34.9162 93.4582 35.2524C92.2816 35.5885 98.1647 38.1099 98.1647 38.1099C98.1647 38.1099 99.3413 34.0757 99.8456 33.5715C100.35 33.0672 94.2986 32.5629 94.2986 32.5629Z" fill="#FFB9B9"/>
<path opacity="0.1" d="M94.2986 32.5629C94.2986 32.5629 94.6348 34.9162 93.4582 35.2524C92.2816 35.5885 98.1647 38.1099 98.1647 38.1099C98.1647 38.1099 99.3413 34.0757 99.8456 33.5715C100.35 33.0672 94.2986 32.5629 94.2986 32.5629Z" fill="black"/>
<path d="M99.0051 36.429C99.0051 36.429 93.7944 34.9162 93.6263 34.4119C93.4582 33.9076 92.2815 35.0843 91.7773 35.9247C91.273 36.7652 90.2645 37.7737 89.7602 37.7737C89.2559 37.7737 85.5579 39.9589 84.7175 43.8249C84.3328 45.5947 83.7719 46.6248 83.2768 47.2215C82.9047 47.7089 82.6784 48.2919 82.6241 48.9027C82.6217 48.9309 82.6119 48.958 82.5958 48.9813C82.5797 49.0047 82.5578 49.0234 82.5323 49.0357C82.1961 49.2038 89.5921 56.2636 89.5921 56.2636C89.5921 56.2636 92.4496 55.5913 92.9539 56.2636C93.4582 56.936 92.6177 58.1126 92.1135 58.785C91.6092 59.4573 90.4326 62.8191 91.1049 63.3234C91.7773 63.8277 95.3072 58.785 97.3242 59.7935C99.3413 60.8021 101.358 59.9616 101.358 59.9616C101.358 59.9616 102.199 62.6511 103.544 62.6511C104.888 62.6511 105.224 60.4659 104.72 59.7935C104.216 59.1212 102.199 57.7764 103.207 55.9274C104.216 54.0785 104.552 50.7166 104.552 50.7166C104.552 50.7166 107.242 47.5229 102.367 43.6569C102.367 43.6569 100.686 38.9503 100.182 38.6141C99.6775 38.278 98.837 38.1099 98.837 37.7737C98.837 37.4375 99.0051 36.429 99.0051 36.429Z" fill="#FF6584"/>
<path d="M83.0366 48.1953L77.9939 55.2551L73.6235 60.634C73.6235 60.634 69.0851 65.5086 68.5808 66.181C68.0765 66.8533 66.5637 66.6852 66.8999 67.6938C67.2361 68.7023 67.7404 70.3832 68.2446 70.5513C68.7489 70.7194 71.1022 70.3832 71.2703 70.047C71.4384 69.7108 82.3642 63.3234 86.2303 58.785L89.9348 56.1908L89.9283 51.8933L83.0366 48.1953Z" fill="#FF6584"/>
<path d="M93.2215 56.4447L102.965 56.7556C103.075 56.7589 103.179 56.8049 103.256 56.8839C103.333 56.9628 103.375 57.0685 103.375 57.1785V57.334C103.375 57.3912 103.364 57.4477 103.341 57.5003C103.319 57.5528 103.286 57.6003 103.245 57.6398C103.203 57.6793 103.155 57.71 103.101 57.7301C103.048 57.7502 102.991 57.7592 102.933 57.7567L93.19 57.2903C93.0811 57.2854 92.9784 57.2387 92.9031 57.16C92.8278 57.0813 92.7858 56.9765 92.7858 56.8676C92.7858 56.811 92.7972 56.7549 92.8192 56.7028C92.8413 56.6506 92.8736 56.6035 92.9142 56.564C92.9548 56.5246 93.003 56.4937 93.0558 56.4732C93.1086 56.4527 93.1649 56.443 93.2215 56.4447Z" fill="#2F2E41"/>
<path d="M103.207 58.2807C103.3 58.2807 103.375 57.8668 103.375 57.3562C103.375 56.8456 103.3 56.4317 103.207 56.4317C103.115 56.4317 103.039 56.8456 103.039 57.3562C103.039 57.8668 103.115 58.2807 103.207 58.2807Z" fill="#2F2E41"/>
<path d="M97.6604 35.2524C100.26 35.2524 102.367 33.1452 102.367 30.5458C102.367 27.9465 100.26 25.8393 97.6604 25.8393C95.0611 25.8393 92.9539 27.9465 92.9539 30.5458C92.9539 33.1452 95.0611 35.2524 97.6604 35.2524Z" fill="#FFB9B9"/>
<path d="M99.6276 25.5598C98.7156 25.3287 96.5533 25.335 96.2369 25.335C95.4747 25.335 94.7199 25.4852 94.0157 25.7769C93.3115 26.0686 92.6716 26.4961 92.1326 27.0351C91.5936 27.5741 91.1661 28.214 90.8744 28.9182C90.5827 29.6224 90.4325 30.3772 90.4325 31.1394L88.2474 39.2865H92.5008L93.2901 36.2609L94.4107 39.2865H96.5519L96.7359 37.4684L97.4606 39.2865H99.8456C98.0594 35.245 97.1092 31.561 99.4559 29.2872C101.041 29.503 102.377 29.0786 102.595 28.2195C102.846 27.2296 101.517 26.0388 99.6276 25.5598Z" fill="#2F2E41"/>
<path d="M5.53017 54.3474C5.11625 54.349 4.70922 54.2415 4.35007 54.0357C3.99092 53.8299 3.69235 53.5332 3.48442 53.1752C3.27649 52.8173 3.16656 52.411 3.16569 51.997C3.16482 51.5831 3.27305 51.1763 3.47947 50.8175C6.47147 45.7748 15.5652 33.9917 35.4334 33.9917C44.0396 33.9917 51.5869 36.2777 57.8567 40.7825C63.017 44.4805 65.9082 48.6659 67.2865 50.683C67.4613 50.9375 67.5839 51.224 67.6473 51.5262C67.7106 51.8283 67.7135 52.14 67.6556 52.4432C67.5978 52.7464 67.4804 53.0352 67.3103 53.2928C67.1402 53.5504 66.9208 53.7717 66.6646 53.944C66.1436 54.2931 65.5063 54.4236 64.89 54.3072C64.2738 54.1909 63.7279 53.8371 63.37 53.322C60.8655 49.6913 53.2678 38.6646 35.4334 38.6646C18.0193 38.6646 10.1527 48.8172 7.58087 53.1708C7.3759 53.5327 7.0774 53.8329 6.71663 54.0399C6.35586 54.2469 5.94607 54.3531 5.53017 54.3474Z" fill="#FFB149"/>
<path d="M45.4348 100.471C45.2366 100.474 45.039 100.451 44.8465 100.404C30.4412 96.7902 25.0623 82.2336 24.8437 81.6284L24.8101 81.494C24.6925 81.0737 21.8013 71.0892 26.2389 65.2396C28.2728 62.567 31.3656 61.2055 35.4502 61.2055C39.2491 61.2055 41.989 62.3989 43.8716 64.8698C45.418 66.8869 46.0399 69.3747 46.6451 71.7783C47.9057 76.7706 48.8134 79.3928 54.0578 79.6618C56.3607 79.7794 57.8735 78.4179 58.7307 77.2581C61.0504 74.098 61.4538 68.9376 59.7057 64.3992C57.4533 58.516 49.4858 47.4389 35.4334 47.4389C29.4326 47.4389 23.9193 49.3887 19.4985 53.0531C15.8341 56.0955 12.9261 60.3818 11.531 64.7858C8.94241 72.9886 12.3378 85.8811 12.3715 85.9988C12.4505 86.2968 12.4696 86.6075 12.4277 86.913C12.3858 87.2185 12.2837 87.5126 12.1274 87.7784C11.9711 88.0441 11.7636 88.2762 11.5169 88.4613C11.2703 88.6463 10.9894 88.7806 10.6905 88.8563C10.0844 89.0163 9.4397 88.9314 8.89561 88.6201C8.35152 88.3087 7.95174 87.7958 7.78259 87.1922C7.63131 86.6039 4.00056 72.8541 6.99256 63.3738C10.2535 53.1035 20.3053 42.7492 35.4334 42.7492C42.426 42.7492 49.0319 45.1529 54.5453 49.6913C58.8148 53.2212 62.3111 57.9613 64.1264 62.7015C66.4461 68.7527 65.8242 75.5436 62.5464 79.9811C60.3612 82.9395 57.2516 84.486 53.8057 84.3179C44.8297 83.864 43.216 77.527 42.0394 72.9045C40.8291 68.1644 40.0559 65.8784 35.4334 65.8784C32.8953 65.8784 31.1135 66.5844 30.0041 68.0467C28.4913 70.047 28.3736 73.1735 28.5417 75.4427C28.5434 75.4664 28.5451 75.4901 28.5469 75.5137C28.7693 78.4006 29.6434 81.1996 31.1036 83.7C33.437 87.7234 38.1702 93.8938 46.0231 95.8657C46.323 95.9383 46.6055 96.0696 46.8543 96.252C47.1031 96.4344 47.3133 96.6644 47.4727 96.9285C47.6321 97.1927 47.7376 97.4858 47.7831 97.7909C47.8286 98.0961 47.8131 98.4072 47.7376 98.7064C47.6011 99.2127 47.3015 99.66 46.8853 99.979C46.469 100.298 45.9592 100.471 45.4348 100.471Z" fill="#FFB149"/>
<path d="M26.9449 99.3956C26.6213 99.3958 26.301 99.3303 26.0034 99.2032C25.7058 99.0761 25.4371 98.8899 25.2135 98.656C19.448 92.5375 16.1871 85.6962 14.96 77.1404V77.09C14.2709 71.4254 15.2794 63.4075 20.2213 57.8941C23.8688 53.8263 28.9956 51.7588 35.4334 51.7588C43.0479 51.7588 49.0319 55.3391 52.7635 62.0964C54.4499 65.204 55.555 68.5933 56.0245 72.0977C56.0799 72.7193 55.8884 73.3376 55.4914 73.8191C55.0944 74.3005 54.5239 74.6063 53.9032 74.6704C53.2824 74.7345 52.6615 74.5516 52.1745 74.1614C51.6876 73.7712 51.3739 73.2049 51.3011 72.5852C50.8922 69.655 49.9524 66.824 48.5276 64.2311C45.6365 59.0707 41.2325 56.4485 35.4166 56.4485C30.3907 56.4485 26.4574 57.9782 23.7511 61.0038C19.8515 65.3573 19.095 72.0641 19.6329 76.5017C20.7087 84.0658 23.5831 90.0834 28.6594 95.4623C28.8713 95.6863 29.0365 95.9502 29.1455 96.2387C29.2544 96.5272 29.3049 96.8344 29.2939 97.1426C29.283 97.4508 29.2108 97.7537 29.0817 98.0337C28.9526 98.3137 28.769 98.5653 28.5417 98.7737C28.1049 99.1717 27.5358 99.3933 26.9449 99.3956Z" fill="#FFB149"/>
<path d="M35.467 77.443C37.138 77.443 38.4927 76.0884 38.4927 74.4174C38.4927 72.7464 37.138 71.3918 35.467 71.3918C33.796 71.3918 32.4414 72.7464 32.4414 74.4174C32.4414 76.0884 33.796 77.443 35.467 77.443Z" fill="#FFB149"/>
</g>
<defs>
<clipPath id="clip0">
<rect width="153" height="134.762" fill="white"/>
</clipPath>
</defs>
</svg>
